<svg width="531" height="327" viewBox="0 0 531 327" fill="none" xmlns="http://www.w3.org/2000/svg">
<g clip-path="url(#clip0)">
<path opacity="0.1" d="M480.056 318.546C480.056 321.629 469.448 324.517 450.937 327H100.802C85.2238 327.033 69.9146 322.936 56.431 315.125L56.2236 315.007C61.5435 313.066 71.1462 311.256 84.2158 309.622L84.8019 309.55C90.6628 308.833 97.2134 308.151 104.373 307.506C104.553 307.506 104.738 307.478 104.918 307.456C110.599 306.95 116.641 306.476 123.046 306.034C123.249 306.034 123.447 305.998 123.65 305.989C126.121 305.811 128.642 305.643 131.215 305.483L132.207 305.42C150.939 304.256 172.232 303.326 195.324 302.712H195.351C198.585 302.622 201.853 302.542 205.156 302.473C208.829 302.386 212.547 302.309 216.31 302.243C219.182 302.179 222.09 302.134 225.006 302.089H225.074C238.234 301.891 251.831 301.791 265.735 301.791C300.115 301.791 332.611 302.419 361.406 303.547H361.487C365.914 303.719 370.26 303.908 374.498 304.102L378.105 304.274C382.887 304.502 387.545 304.748 392.081 305.009C445.414 308.047 480.056 312.981 480.056 318.546Z" fill="#2B2B2B"/>
<g opacity="0.2">
<path opacity="0.2" d="M306.692 299.72C306.678 300.206 306.622 300.691 306.525 301.168C303.387 300.669 300.231 300.218 297.058 299.814C297.058 299.688 297.058 299.557 297.058 299.426C297.087 298.073 297.476 296.752 298.185 295.599C299.113 294.127 300.525 293.206 302.08 293.256C303.635 293.306 304.983 294.312 305.817 295.833C306.448 297.028 306.75 298.369 306.692 299.72V299.72Z" fill="#3F3D56"/>
<path opacity="0.2" d="M306.951 292.007C307.061 288.516 304.992 285.618 302.329 285.534C299.666 285.449 297.418 288.211 297.308 291.702C297.198 295.192 299.267 298.09 301.93 298.175C304.593 298.259 306.841 295.497 306.951 292.007Z" fill="#3F3D56"/>
<path opacity="0.2" d="M307.197 284.279C307.307 280.788 305.238 277.89 302.575 277.806C299.912 277.722 297.664 280.483 297.554 283.974C297.444 287.464 299.513 290.362 302.176 290.447C304.839 290.531 307.087 287.77 307.197 284.279Z" fill="#3F3D56"/>
<path opacity="0.2" d="M307.439 276.552C307.549 273.061 305.48 270.163 302.817 270.079C300.154 269.994 297.906 272.756 297.796 276.246C297.686 279.737 299.755 282.635 302.418 282.719C305.081 282.804 307.329 280.042 307.439 276.552Z" fill="#3F3D56"/>
<path opacity="0.2" d="M307.68 268.824C307.791 265.333 305.721 262.435 303.058 262.351C300.396 262.267 298.148 265.028 298.037 268.519C297.927 272.01 299.997 274.908 302.659 274.992C305.322 275.076 307.57 272.315 307.68 268.824Z" fill="#3F3D56"/>
<path opacity="0.2" d="M286.45 215.206C285.815 214.345 285.242 213.44 284.737 212.498L297.477 210.814L283.763 210.485C282.539 207.578 281.92 204.453 281.944 201.299C281.968 198.145 282.635 195.029 283.903 192.141L301.99 202.274L285.422 189.257C287.093 186.551 289.304 184.218 291.916 182.406C294.528 180.593 297.486 179.339 300.604 178.722C303.722 178.105 306.933 178.139 310.038 178.82C313.142 179.502 316.073 180.817 318.647 182.684C321.221 184.55 323.383 186.928 324.998 189.669C326.613 192.409 327.646 195.454 328.033 198.612C328.419 201.77 328.152 204.975 327.246 208.025C326.34 211.075 324.816 213.905 322.769 216.339C323.756 217.678 324.595 219.12 325.271 220.64L308.55 228.675L326.281 223.335C327.398 227.024 327.578 230.933 326.804 234.709C326.031 238.485 324.33 242.008 321.854 244.96C324.428 248.457 325.968 252.608 326.296 256.94C326.625 261.272 325.729 265.608 323.712 269.454C321.694 273.3 318.636 276.5 314.888 278.688C311.14 280.876 306.852 281.964 302.515 281.827C298.178 281.69 293.968 280.334 290.364 277.914C286.761 275.494 283.911 272.108 282.139 268.142C280.368 264.176 279.747 259.792 280.347 255.49C280.948 251.187 282.745 247.141 285.535 243.813C282.459 239.635 280.876 234.542 281.039 229.353C281.203 224.165 283.104 219.183 286.436 215.206H286.45Z" fill="#2B2B2B"/>
<path opacity="0.1" d="M327.264 230.814C327.106 236.006 325.199 240.991 321.854 244.96C324.428 248.457 325.968 252.608 326.296 256.94C326.625 261.272 325.729 265.608 323.712 269.454C321.694 273.3 318.636 276.5 314.888 278.688C311.14 280.876 306.852 281.964 302.515 281.827C298.178 281.69 293.968 280.334 290.364 277.914C286.761 275.494 283.911 272.108 282.139 268.142C280.368 264.176 279.747 259.792 280.347 255.49C280.948 251.187 282.745 247.141 285.535 243.814C282.573 239.783 327.345 228.219 327.264 230.814Z" fill="black"/>
</g>
<g opacity="0.2">
<path opacity="0.2" d="M238.166 299.72C238.151 300.206 238.095 300.691 237.999 301.168C234.861 300.669 231.705 300.218 228.531 299.814C228.531 299.688 228.531 299.557 228.531 299.426C228.561 298.073 228.95 296.752 229.658 295.599C230.587 294.127 231.998 293.206 233.554 293.256C235.109 293.306 236.457 294.312 237.291 295.833C237.922 297.028 238.224 298.369 238.166 299.72V299.72Z" fill="#3F3D56"/>
<path opacity="0.2" d="M238.42 292.008C238.53 288.518 236.461 285.62 233.798 285.535C231.135 285.451 228.887 288.213 228.777 291.703C228.666 295.194 230.736 298.092 233.399 298.176C236.062 298.26 238.31 295.499 238.42 292.008Z" fill="#3F3D56"/>
<path opacity="0.2" d="M238.666 284.281C238.776 280.79 236.707 277.892 234.044 277.808C231.381 277.724 229.133 280.485 229.023 283.976C228.913 287.466 230.982 290.364 233.645 290.449C236.308 290.533 238.556 287.771 238.666 284.281Z" fill="#3F3D56"/>
<path opacity="0.2" d="M238.908 276.553C239.018 273.063 236.949 270.164 234.286 270.08C231.623 269.996 229.375 272.757 229.265 276.248C229.155 279.739 231.224 282.637 233.887 282.721C236.55 282.805 238.798 280.044 238.908 276.553Z" fill="#3F3D56"/>
<path opacity="0.2" d="M239.149 268.826C239.259 265.335 237.19 262.437 234.527 262.353C231.864 262.268 229.616 265.03 229.506 268.521C229.396 272.011 231.465 274.909 234.128 274.994C236.791 275.078 239.039 272.316 239.149 268.826Z" fill="#3F3D56"/>
<path opacity="0.2" d="M217.924 215.206C217.289 214.345 216.716 213.44 216.21 212.498L228.951 210.814L215.237 210.485C214.013 207.578 213.394 204.453 213.418 201.299C213.442 198.145 214.108 195.029 215.376 192.141L233.464 202.274L216.896 189.257C218.567 186.551 220.778 184.218 223.39 182.406C226.002 180.593 228.96 179.339 232.077 178.722C235.195 178.105 238.407 178.139 241.511 178.82C244.616 179.502 247.547 180.817 250.121 182.684C252.695 184.55 254.857 186.928 256.471 189.669C258.086 192.409 259.119 195.454 259.506 198.612C259.893 201.77 259.625 204.975 258.72 208.025C257.814 211.075 256.29 213.905 254.243 216.339C255.23 217.678 256.069 219.12 256.745 220.64L240.023 228.675L257.755 223.335C258.871 227.024 259.051 230.933 258.278 234.709C257.505 238.485 255.804 242.008 253.327 244.96C255.902 248.457 257.441 252.608 257.77 256.94C258.098 261.272 257.203 265.608 255.185 269.454C253.168 273.3 250.11 276.5 246.362 278.688C242.613 280.876 238.326 281.964 233.989 281.827C229.652 281.69 225.441 280.334 221.838 277.914C218.235 275.494 215.384 272.108 213.613 268.142C211.842 264.176 211.221 259.792 211.821 255.49C212.421 251.187 214.219 247.141 217.008 243.813C213.933 239.635 212.35 234.542 212.513 229.353C212.677 224.165 214.577 219.183 217.91 215.206H217.924Z" fill="#2B2B2B"/>
<path opacity="0.1" d="M258.737 230.814C258.58 236.006 256.673 240.991 253.327 244.96C255.902 248.457 257.441 252.608 257.77 256.94C258.098 261.272 257.203 265.608 255.185 269.454C253.168 273.3 250.11 276.5 246.362 278.688C242.613 280.876 238.326 281.964 233.989 281.827C229.652 281.69 225.441 280.334 221.838 277.914C218.235 275.494 215.384 272.108 213.613 268.142C211.842 264.176 211.221 259.792 211.821 255.49C212.421 251.187 214.219 247.141 217.008 243.814C214.046 239.783 258.819 228.219 258.737 230.814Z" fill="black"/>
</g>
<g opacity="0.2">
<path opacity="0.2" d="M425.352 304.658C425.318 305.58 425.207 306.498 425.023 307.402C418.982 306.436 412.897 305.572 406.769 304.811C406.769 304.567 406.769 304.319 406.769 304.066C406.826 301.46 407.576 298.916 408.942 296.696C410.745 293.866 413.45 292.092 416.439 292.182C419.428 292.272 422.029 294.218 423.652 297.147C424.876 299.455 425.463 302.047 425.352 304.658V304.658Z" fill="#3F3D56"/>
<path opacity="0.2" d="M425.843 289.797C426.055 283.075 422.069 277.494 416.94 277.332C411.811 277.169 407.481 282.487 407.269 289.21C407.057 295.932 411.043 301.513 416.172 301.675C421.301 301.837 425.631 296.52 425.843 289.797Z" fill="#3F3D56"/>
<path opacity="0.2" d="M426.312 274.92C426.524 268.198 422.538 262.617 417.409 262.454C412.28 262.292 407.95 267.61 407.738 274.332C407.526 281.054 411.511 286.635 416.641 286.798C421.77 286.96 426.1 281.642 426.312 274.92Z" fill="#3F3D56"/>
<path opacity="0.2" d="M426.784 260.043C426.997 253.321 423.011 247.74 417.882 247.577C412.752 247.415 408.423 252.733 408.21 259.455C407.998 266.177 411.984 271.759 417.113 271.921C422.242 272.083 426.572 266.765 426.784 260.043Z" fill="#3F3D56"/>
<path opacity="0.2" d="M426.725 244.489C426.926 237.763 422.929 232.186 417.798 232.032C412.666 231.878 408.343 237.205 408.141 243.931C407.94 250.656 411.936 256.233 417.068 256.387C422.2 256.542 426.523 251.214 426.725 244.489Z" fill="#3F3D56"/>
<path opacity="0.2" d="M386.378 141.959C385.161 140.302 384.06 138.563 383.082 136.755L407.608 133.514L381.211 132.877C378.854 127.283 377.661 121.265 377.706 115.193C377.751 109.121 379.032 103.122 381.473 97.5626L416.3 117.066L384.408 92.0063C387.632 86.8084 391.892 82.3311 396.92 78.8535C401.949 75.3759 407.639 72.9725 413.636 71.7931C419.634 70.6137 425.809 70.6835 431.778 71.9983C437.747 73.3131 443.382 75.8446 448.33 79.435C453.279 83.0255 457.437 87.598 460.543 92.8675C463.65 98.137 465.639 103.991 466.387 110.064C467.135 116.137 466.625 122.299 464.89 128.166C463.155 134.033 460.232 139.479 456.302 144.166C458.201 146.745 459.817 149.522 461.122 152.448L428.928 167.926L463.06 157.635C465.211 164.728 465.561 172.246 464.079 179.508C462.597 186.771 459.329 193.548 454.571 199.228C459.526 205.96 462.489 213.952 463.12 222.291C463.752 230.629 462.028 238.977 458.144 246.381C454.26 253.784 448.373 259.944 441.157 264.156C433.942 268.367 425.688 270.461 417.339 270.198C408.991 269.934 400.885 267.324 393.948 262.665C387.012 258.007 381.525 251.488 378.114 243.855C374.704 236.221 373.508 227.781 374.663 219.498C375.818 211.216 379.278 203.427 384.647 197.021C378.729 188.976 375.683 179.174 375.997 169.188C376.311 159.202 379.967 149.611 386.378 141.954V141.959Z" fill="#E66565"/>
<path opacity="0.1" d="M464.958 172.001C464.662 181.99 461.008 191.586 454.588 199.237C459.543 205.969 462.506 213.961 463.138 222.3C463.77 230.638 462.045 238.986 458.161 246.39C454.277 253.793 448.391 259.953 441.175 264.164C433.959 268.376 425.705 270.47 417.357 270.207C409.008 269.943 400.902 267.333 393.966 262.674C387.029 258.016 381.542 251.497 378.132 243.863C374.721 236.23 373.525 227.789 374.681 219.507C375.836 211.225 379.296 203.436 384.664 197.03C378.921 189.262 465.115 167.005 464.958 172.001Z" fill="black"/>
</g>
<path d="M71.1504 305.452L75.8796 305.438H82.5474L90.978 168.323L174.468 28.8377L170.839 24.9379V15.062L80.5457 165.091L71.1504 305.452Z" fill="#F1C0C0"/>
<path opacity="0.1" d="M76.3848 305.438H82.5477L90.9782 168.323L174.468 28.8378L170.839 24.938L84.7207 166.233L76.3848 305.438Z" fill="black"/>
<path d="M57.2158 306.594L273.548 323.168L273.733 323.181L483.095 310.29L483.253 310.281V301.43L252.562 297.192L60.0966 297.007H58.69L58.5368 298L57.2158 306.594Z" fill="#F1C0C0"/>
<path opacity="0.1" d="M57.2158 306.594L273.548 323.168L273.733 323.181L483.095 310.29L483.253 310.119V301.615H483.068L273.548 308.62L60.0966 297.007H60.0651L59.6864 297.255L58.5368 298L57.2158 306.594Z" fill="black"/>
<path opacity="0.1" d="M57.2158 306.594L273.548 323.168V308.62L59.6864 297.255L58.5368 298L57.2158 306.594Z" fill="black"/>
<path d="M170.812 24.7528L266.185 127.24L263.237 307.515L271.338 308.494L271.473 308.512H279.575L280.544 134.98L459.133 194.705L462.144 301.046L468.663 301.778L470.872 302.026L465.76 187.33L279.07 121.71L176.704 15.1658H170.812V24.7528Z" fill="#F1C0C0"/>
<path opacity="0.1" d="M279.81 131.663L280.544 134.981L459.133 194.705L462.144 301.047L468.664 301.778L463.551 192.493L279.81 131.663Z" fill="black"/>
<path opacity="0.1" d="M170.812 24.7528L266.185 127.24L263.237 307.515L271.338 308.494L273.547 121.34L170.812 15.1658V24.7528Z" fill="black"/>
<path d="M280.157 204.012L345.659 216.926L345.681 216.93L460.405 239.557L465.657 237.449L465.639 237.079L465.296 229.744L280.225 192.304L280.157 204.012Z" fill="#F1C0C0"/>
<path opacity="0.1" d="M345.681 216.93L460.404 239.557L465.656 237.449L465.638 237.079L345.681 216.93Z" fill="black"/>
<path d="M350.067 158.23L351.839 255.878L352.754 305.975L360.82 305.704L365.896 305.533L364.318 159.643L360.82 158.478L360.053 158.23H350.067Z" fill="#F1C0C0"/>
<path opacity="0.1" d="M350.14 158.208V158.23L351.839 255.879L352.754 305.975L360.82 305.705V158.208H350.14Z" fill="black"/>
<path d="M223.73 183.168C224.204 183.426 224.656 183.72 225.083 184.048C225.588 184.491 226.042 184.989 226.435 185.533C228.37 188.038 230.155 190.95 229.965 194.109C229.97 194.569 229.883 195.025 229.71 195.451C229.538 195.877 229.283 196.265 228.96 196.592C228.162 197.273 227.017 197.305 225.971 197.305C224.835 197.305 223.64 197.305 222.657 196.718C221.675 196.131 220.854 194.989 219.691 195.016C219.527 195.044 219.359 195.044 219.195 195.016C218.794 194.885 218.713 194.357 218.451 194.023C218 193.423 217.049 193.572 216.341 193.834C215.634 194.096 214.849 194.488 214.15 194.186C213.745 193.972 213.413 193.64 213.199 193.233C211.526 190.525 211.17 187.271 210.855 184.125C210.661 182.211 209.182 175.684 213.262 177.169C215.065 177.819 216.752 179.119 218.393 180.072L223.73 183.168Z" fill="#3F3D56"/>
<path d="M219.7 183.814C220.064 184.076 220.506 184.209 220.954 184.191C221.403 184.173 221.833 184.005 222.175 183.714C222.846 183.107 223.274 182.276 223.379 181.376C223.83 181.236 224.059 181.828 224.348 182.189C224.853 182.803 225.881 182.794 226.341 183.448C226.661 183.899 226.589 184.527 226.814 185.037C227.107 185.696 227.833 186.039 228.329 186.571C228.797 187.153 229.135 187.829 229.321 188.553L230.06 190.774C230.414 191.697 230.641 192.664 230.736 193.649C230.783 194.141 230.731 194.638 230.584 195.109C230.437 195.581 230.198 196.019 229.88 196.398C228.888 197.467 227.26 197.58 225.822 197.549C225.342 197.559 224.862 197.503 224.398 197.382C223.122 196.984 222.306 195.698 221.968 194.403C221.629 193.107 221.665 191.749 221.467 190.422C221.253 189.118 220.874 187.847 220.34 186.639C219.943 185.7 218.852 184.301 218.87 183.304C219.195 183.304 219.429 183.601 219.7 183.814Z" fill="#3F3D56"/>
<path d="M221.319 179.241C221.108 178.601 220.985 177.934 220.954 177.26C220.954 175.906 221.571 174.633 222.193 173.423L217.04 174.123C216.418 174.209 215.724 174.335 215.372 174.854C215.239 175.111 215.169 175.397 215.169 175.687C215.169 175.977 215.239 176.262 215.372 176.52C215.631 177.035 215.836 177.575 215.985 178.131C215.997 178.618 216.053 179.103 216.152 179.58C216.313 179.93 216.537 180.247 216.815 180.514C218.289 182.148 219.394 184.076 220.494 185.985C220.462 185.931 223.6 183.498 223.474 182.703C223.402 182.252 222.495 181.71 222.207 181.277C221.808 180.648 221.509 179.962 221.319 179.241V179.241Z" fill="#BE6F72"/>
<path d="M265.5 161.606V166.052L189.458 180.902L185.513 183.295H171.902V180.789L246.614 162.717L265.5 161.606Z" fill="#F1C0C0"/>
<path opacity="0.1" d="M265.5 166.052L189.458 180.902L185.513 183.295H171.902L247.169 167.167L265.5 166.052Z" fill="black"/>
<path d="M204.449 287.817C203.601 286.79 202.432 286.08 201.13 285.803C199.829 285.526 198.472 285.698 197.28 286.291C197.025 286.412 196.801 286.587 196.622 286.806C196.171 287.438 196.46 288.309 196.5 289.09C196.604 290.995 195.089 292.543 193.728 293.874C192.997 294.587 192.254 295.35 191.924 296.321C191.595 297.291 191.839 298.523 192.722 299.029C193.108 299.222 193.528 299.339 193.958 299.372C195.399 299.653 196.876 299.695 198.331 299.494C199.769 299.218 201.18 298.401 201.802 297.074C201.922 296.715 202.121 296.386 202.384 296.113C203.177 295.486 204.395 296.221 205.296 295.775C206.04 295.404 206.072 294.822 206.081 294.055C206.108 291.933 205.792 289.532 204.449 287.817Z" fill="#2B2B2B"/>
<path d="M215.268 287.736C215.822 289.198 215.899 290.792 215.971 292.353C216.012 293.256 216.039 294.222 215.552 294.985C215.065 295.748 214.114 296.149 213.203 296.339C211.323 296.727 209.145 296.361 207.933 294.867C207.004 293.725 206.81 292.159 206.981 290.679C207.126 289.465 207.432 288.043 206.562 287.181C206.337 286.95 206.044 286.788 205.836 286.54C205.386 285.989 205.458 285.159 205.701 284.482C206.018 283.834 206.256 283.151 206.409 282.446C206.445 282.112 212.513 282.681 213.072 282.956C213.834 283.331 213.717 283.958 213.947 284.716C214.267 285.772 214.88 286.725 215.268 287.736Z" fill="#2B2B2B"/>
<path d="M216.382 222.893C217.572 223.665 218.032 225.181 218.217 226.589C218.726 230.449 217.833 234.348 217.766 238.244C217.703 243.701 219.28 249.257 217.932 254.542C217.126 257.702 217.811 261.313 217.053 264.504C216.828 265.452 216.413 266.346 216.197 267.293C215.746 269.347 216.219 271.496 216.855 273.504C217.058 274.046 217.187 274.612 217.238 275.188C217.208 276.074 216.983 276.943 216.58 277.734L213.875 284.138C213.573 284.856 212.383 284.973 211.621 285.068C210.187 285.24 208.587 285.362 207.446 284.472C206.306 283.583 206.031 282.094 205.855 280.704C205.517 278.035 205.367 275.346 205.404 272.656C205.453 271.954 205.391 271.248 205.219 270.566C204.971 269.794 204.426 269.126 204.277 268.309C204.087 267.253 204.624 266.215 204.822 265.15C204.958 264.177 204.943 263.188 204.777 262.22C204.601 260.776 204.398 259.331 204.169 257.896C203.844 255.888 204.308 253.906 204.619 251.893C204.912 250.002 204.538 248.074 204.169 246.197C204.201 247.721 204.011 249.241 203.605 250.71C203.366 251.428 203.023 252.114 202.816 252.845C201.892 256.127 203.862 259.571 203.582 262.969C203.452 264.558 202.83 266.129 203.005 267.695C203.127 268.842 203.659 269.893 204.024 270.986C204.389 272.078 204.579 273.328 204.024 274.348C202.559 277.12 203.655 280.889 204.967 283.732C205.233 284.236 205.465 284.758 205.661 285.294C206.049 286.576 205.724 287.952 205.828 289.288C205.45 289.35 205.063 289.325 204.697 289.215C204.331 289.105 203.994 288.912 203.713 288.652C203.515 288.444 203.353 288.201 203.159 287.984C202.617 287.467 201.976 287.066 201.274 286.806C200.862 286.575 200.393 286.467 199.922 286.495C199.426 286.633 198.981 286.91 198.637 287.293C198.191 287.686 197.718 288.046 197.221 288.372C197.01 288.535 196.762 288.645 196.5 288.693C196.368 288.713 196.233 288.691 196.114 288.631C195.995 288.57 195.898 288.473 195.837 288.354C195.809 288.279 195.792 288.2 195.788 288.119C195.62 286.757 195.531 285.385 195.522 284.012C195.522 281.651 192.699 280.026 192.343 277.693C192.059 275.811 192.587 273.892 192.411 271.997C192.325 271.022 192.055 270.065 192.073 269.09C192.073 268.458 192.217 267.84 192.267 267.212C192.308 266.516 192.297 265.817 192.235 265.122L192.095 262.942C191.96 260.789 191.811 258.591 190.964 256.623C189.959 254.325 189.364 251.869 189.205 249.365C189.115 247.786 189.174 246.206 188.994 244.621C188.831 243.191 188.471 241.769 188.574 240.333C188.66 239.223 189.025 238.149 189.111 237.039C189.287 234.904 188.475 232.827 187.839 230.783C187.204 228.738 186.735 226.472 187.569 224.5C187.688 224.176 187.887 223.887 188.146 223.66C188.466 223.448 188.83 223.312 189.21 223.263C196.945 221.636 204.874 221.13 212.752 221.76C214.037 221.833 215.283 222.222 216.382 222.893Z" fill="#3F3D56"/>
<path d="M190.788 174.953C194.777 174.953 198.01 171.716 198.01 167.723C198.01 163.729 194.777 160.492 190.788 160.492C186.799 160.492 183.565 163.729 183.565 167.723C183.565 171.716 186.799 174.953 190.788 174.953Z" fill="#BE6F72"/>
<path d="M189.391 176.754C189.494 177.168 189.494 177.6 189.391 178.014C189.277 178.303 189.117 178.571 188.917 178.808C188.218 179.711 187.444 180.553 186.604 181.327C187.032 182.284 187.803 183.045 188.764 183.462C189.718 183.868 190.719 184.155 191.744 184.315C192.255 184.449 192.788 184.486 193.313 184.423C193.797 184.301 194.255 184.093 194.665 183.809L198.678 181.403C199.283 181.075 199.844 180.67 200.346 180.198C201.082 179.441 201.498 178.429 201.509 177.373C201.528 177.184 201.476 176.994 201.365 176.84C201.211 176.706 201.018 176.625 200.815 176.61C199.404 176.299 198.29 175.152 197.659 173.852C197.088 172.52 196.719 171.109 196.563 169.668L192.285 171.925C191.649 172.263 191.018 172.602 190.36 172.895C189.941 173.085 189.093 173.243 188.796 173.626C188.227 174.335 189.242 175.901 189.391 176.754Z" fill="#BE6F72"/>
<path d="M186.631 180.013C186.022 180.513 185.547 181.157 185.247 181.886C184.968 182.789 185.247 183.741 185.5 184.635C186.683 188.444 187.587 192.335 188.205 196.276C188.583 198.984 188.723 201.733 188.908 204.473C189.287 210.06 189.837 218.97 190.572 224.522C193.277 224.644 195.914 223.854 198.596 223.565C203.61 223.033 208.772 224.251 213.681 223.114C212.491 218.406 211.301 210.367 210.111 205.664C209.584 203.811 209.219 201.916 209.02 200C208.916 198.623 208.979 197.242 208.997 195.856C209.038 193.148 208.889 190.44 208.74 187.731C208.569 184.572 208.398 181.412 207.649 178.321C207.597 177.927 207.413 177.562 207.126 177.287C206.675 176.957 206.089 177.075 205.553 177.147C203.91 177.356 202.248 176.961 200.873 176.037C200.278 175.63 199.48 175.134 198.926 175.585C198.689 175.858 198.533 176.19 198.475 176.547C198.229 177.185 197.851 177.764 197.364 178.244C196.877 178.724 196.294 179.095 195.653 179.332C194.368 179.797 193.022 180.074 191.658 180.153C191.241 180.243 190.805 180.194 190.418 180.013C189.778 179.62 189.733 178.208 188.926 178.113C188.218 178.032 187.109 179.557 186.631 180.013Z" fill="#3F3D56"/>
<path d="M197.298 191.036C195.635 189.442 194.904 187.131 193.692 185.168C192.866 183.847 191.811 182.686 190.576 181.737C189.956 181.327 189.387 180.844 188.881 180.298C188.453 179.769 188.128 179.065 187.479 178.862C187.211 178.804 186.932 178.811 186.668 178.885C186.403 178.958 186.16 179.094 185.96 179.282C185.562 179.661 185.186 180.062 184.833 180.483C182.921 182.464 179.562 182.739 178.048 185.032C177.639 185.518 177.361 186.101 177.241 186.725C176.805 190.062 177.666 193.44 179.648 196.158C180.032 196.789 180.621 197.267 181.316 197.513C181.222 198.354 181.333 199.206 181.641 199.995C182.476 202.852 183.501 205.649 184.711 208.368C184.422 209.431 184.22 210.517 184.107 211.613C183.791 214.371 184.084 217.17 183.787 219.932C183.543 222.189 182.885 224.387 182.863 226.648C182.863 227.009 182.894 227.438 183.205 227.623C183.371 227.708 183.556 227.747 183.742 227.736L189.287 227.903C192.506 227.998 195.756 228.093 198.926 227.497C199.348 227.434 199.757 227.305 200.138 227.113C201.211 226.513 201.568 225.159 201.739 223.954C201.963 222.39 202.052 220.811 202.005 219.232C202.677 221.358 203.475 223.556 205.503 224.477C206.576 224.965 207.803 224.928 208.979 224.897C211.515 224.784 214.043 224.523 216.549 224.116C216.703 224.135 216.86 224.118 217.007 224.066C217.153 224.013 217.285 223.927 217.393 223.814C217.5 223.702 217.58 223.565 217.625 223.416C217.67 223.267 217.68 223.11 217.653 222.956L217.68 220.492C217.734 215.486 216.495 210.701 216.012 205.718C215.859 204.148 215.873 202.559 215.489 201.02C215.332 200.374 215.102 199.742 214.962 199.092C214.842 198.456 214.766 197.812 214.736 197.165L214.385 192.2C214.218 189.903 213.979 187.686 213.803 185.393C213.707 183.161 213.383 180.944 212.838 178.776C212.446 177.422 211.63 175.888 210.219 175.721C209.466 175.635 208.736 175.964 208.019 176.195C206.257 176.75 204.366 176.742 202.609 176.172C202.066 175.957 201.5 175.806 200.923 175.721C200.632 175.681 200.336 175.72 200.065 175.832C199.794 175.945 199.558 176.128 199.381 176.362C199.206 176.714 199.124 177.106 199.142 177.499C198.93 182.008 198.538 186.653 197.298 191.036Z" fill="#2B2B2B"/>
<path d="M190.044 191.171C187.965 188.977 185.833 186.743 183.155 185.348C182.1 184.798 180.901 184.382 179.733 184.59C178.566 184.798 177.479 185.813 177.533 187C177.569 187.736 178.016 188.386 178.155 189.108C178.318 189.921 178.083 190.787 178.336 191.573C178.541 192.09 178.847 192.561 179.237 192.958L182.429 196.745C183.782 198.325 185.134 199.927 186.874 201.02C188.615 202.112 190.869 202.622 192.78 201.846C194.14 201.213 195.271 200.174 196.017 198.871C196.811 197.607 197.37 196.226 198.114 194.922C199.271 192.838 200.799 190.982 202.622 189.447C201.684 189.203 200.508 188.86 199.917 188.093C199.749 187.849 199.605 187.589 199.489 187.316L198.758 185.737C198.51 185.724 198.262 185.762 198.029 185.85C197.796 185.938 197.584 186.073 197.406 186.247C197.093 186.609 196.757 186.951 196.401 187.271C195.765 187.75 194.904 187.881 194.327 188.427C194.103 188.661 193.901 188.915 193.723 189.185C193.286 189.759 192.732 190.234 192.098 190.576C191.463 190.919 190.763 191.121 190.044 191.171V191.171Z" fill="#3F3D56"/>
<path d="M202.79 181.733C204.354 178.876 204.282 175.45 204.728 172.223C204.777 171.368 205.076 170.547 205.589 169.862C206.491 168.842 208.082 168.828 209.444 168.959C209.845 169.004 210.346 169.194 210.323 169.596C210.291 169.74 210.221 169.872 210.12 169.979C208.801 171.685 208.024 173.748 207.893 175.901C208.601 176.393 209.696 175.382 210.377 175.901C210.828 176.28 210.621 177.03 210.35 177.571C209.722 178.826 209.074 180.072 208.407 181.309C207.874 182.399 207.18 183.402 206.347 184.283C205.774 184.834 205.102 185.267 204.521 185.809C203.168 187.077 202.352 188.869 200.955 190.106C200.837 190.234 200.677 190.315 200.504 190.336C200.326 190.323 200.159 190.248 200.031 190.124C199.332 189.555 198.753 188.854 198.326 188.061C197.794 187.077 197.876 186.788 198.714 186.093C200.283 184.852 201.811 183.52 202.79 181.733Z" fill="#BE6F72"/>
<path d="M187.429 189.23C187.7 189.397 188.033 189.587 188.331 189.447C188.453 189.373 188.556 189.273 188.633 189.153C189.148 188.465 189.578 187.716 189.913 186.924C189.971 186.812 190.003 186.688 190.008 186.563C190.008 186.274 189.751 186.062 189.512 185.895C188.232 185.078 186.855 184.423 185.414 183.945C184.224 183.493 182.98 183.101 181.717 183.213C181.243 183.245 180.78 183.373 180.356 183.589C179.932 183.804 179.557 184.103 179.251 184.468C178.35 185.628 179.86 185.98 180.807 186.4C182.998 187.398 185.369 187.975 187.429 189.23Z" fill="#2B2B2B"/>
<path opacity="0.1" d="M186.009 196.903C185.994 197.006 186.003 197.111 186.036 197.21C186.069 197.309 186.125 197.399 186.198 197.472C186.329 196.831 186.158 196.154 186.293 195.509C186.491 194.538 187.434 193.807 187.515 192.832C185.788 192.493 186.023 195.856 186.009 196.903Z" fill="black"/>
<path opacity="0.2" d="M265.501 161.606V166.052L247.17 167.167L246.615 162.717L265.501 161.606Z" fill="black"/>
<path d="M184.287 168.797C185.432 167.863 184.769 165.904 185.545 164.649C185.995 163.963 186.757 163.602 187.506 163.295C188.409 162.872 189.377 162.603 190.369 162.5C190.865 162.453 191.366 162.517 191.835 162.69C192.303 162.863 192.726 163.139 193.074 163.498C193.367 163.832 193.565 164.238 193.84 164.586C194.181 164.991 194.624 165.297 195.124 165.47C195.625 165.643 196.162 165.678 196.68 165.57C197.28 165.434 197.902 164.978 197.861 164.364C197.794 163.991 197.603 163.651 197.32 163.399L196.031 161.968C194.566 160.343 192.938 158.619 190.788 158.212C189.291 157.928 187.758 158.33 186.316 158.813C185.734 159.007 185.08 159.296 184.918 159.887C184.81 160.293 184.972 160.735 184.877 161.146C184.693 161.963 183.647 162.239 183.16 162.925C182.673 163.611 182.822 164.423 182.682 165.181C182.542 165.94 182.136 166.68 182.087 167.465C182.055 167.939 182.294 168.819 182.826 168.991C183.358 169.162 183.958 168.233 184.287 168.797Z" fill="#3F3D56"/>
<path d="M197.424 163.715C197.044 161.729 196.224 159.853 195.025 158.226C193.96 156.706 192.477 155.527 190.756 154.832C189.896 154.495 188.971 154.358 188.05 154.431C187.13 154.504 186.238 154.784 185.441 155.251C184.258 156.097 183.337 157.259 182.785 158.605C181.618 161.124 181.185 164.202 182.542 166.621C183.083 165.962 184.012 166.26 184.832 166.021C185.86 165.728 186.73 165.042 187.708 164.613C190.661 163.308 194.268 164.364 197.424 163.715Z" fill="#FED253"/>
<path opacity="0.1" d="M183.232 163.574C183.128 162.762 183.06 161.819 183.637 161.241C183.666 161.205 183.703 161.177 183.744 161.158C183.786 161.14 183.831 161.131 183.876 161.133C183.917 161.146 183.954 161.167 183.986 161.195C184.017 161.223 184.043 161.257 184.061 161.295C184.394 161.821 184.678 162.377 184.909 162.956C184.573 162.879 184.221 162.904 183.9 163.029C183.578 163.153 183.302 163.372 183.105 163.656" fill="black"/>
<path opacity="0.1" d="M193.769 161.281L193.606 159.67C193.58 159.537 193.591 159.4 193.638 159.273C193.706 159.167 193.811 159.089 193.932 159.056C194.054 159.023 194.183 159.036 194.296 159.092C194.518 159.215 194.701 159.398 194.823 159.62C195.199 160.197 195.51 160.813 195.752 161.458C195.026 161.317 194.279 161.327 193.557 161.485" fill="black"/>
<path opacity="0.1" d="M197.803 226.68V230.363L194.697 230.57H178.358V226.68H197.803Z" fill="black"/>
<path d="M197.803 226.68V230.57H178.359L126.702 165.786V162.726H137.531L197.803 226.68Z" fill="#F1C0C0"/>
<path opacity="0.1" d="M197.803 226.68V230.57H178.359L126.702 165.786V162.726H137.531L197.803 226.68Z" fill="black"/>
<path opacity="0.1" d="M197.803 226.68V230.57H178.359L126.702 165.786V162.726L178.638 226.68H197.803Z" fill="black"/>
<path d="M133.474 291.613C133.508 291.796 133.504 291.984 133.462 292.166C133.42 292.347 133.341 292.518 133.23 292.667C133.119 292.817 132.979 292.942 132.818 293.035C132.656 293.127 132.478 293.186 132.293 293.206C131.04 293.631 129.71 294.05 128.821 295.012C127.933 295.973 127.757 297.756 128.821 298.537C129.365 298.865 129.99 299.036 130.625 299.029C132.667 299.169 134.795 299.142 136.648 298.275C137.973 297.661 139.222 296.614 140.678 296.709C141.431 296.754 142.234 297.106 142.905 296.763C143.577 296.42 143.767 295.463 143.771 294.664C143.788 292.996 143.537 291.337 143.027 289.749C142.96 289.532 140.092 289.365 139.75 289.297L136.274 288.846C135.615 288.76 134.195 288.264 133.677 288.814C133.158 289.365 133.474 290.958 133.474 291.613Z" fill="#2B2B2B"/>
<path d="M154.216 280.347C154.363 281.16 154.602 281.953 154.929 282.712C155.411 283.94 156.029 285.244 157.21 285.84C158.283 286.377 159.599 286.183 160.69 285.673C161.146 285.484 161.545 285.181 161.849 284.793C162.201 284.179 162.358 283.472 162.3 282.766C162.3 281.02 162.196 279.214 161.398 277.661C160.713 276.307 159.518 275.143 159.5 273.644L155.393 274.439C155.173 274.46 154.964 274.543 154.789 274.678C154.659 274.815 154.568 274.985 154.527 275.17C154.089 276.859 153.983 278.617 154.216 280.347V280.347Z" fill="#2B2B2B"/>
<path d="M105.171 237.467C104.999 238.921 105.072 240.478 105.829 241.733C106.586 242.988 108.182 243.818 109.562 243.317C109.632 243.299 109.699 243.267 109.757 243.223C109.815 243.179 109.864 243.123 109.9 243.06C109.937 242.907 109.916 242.746 109.841 242.608C109.232 240.981 109.282 239.18 109.981 237.589C110.071 237.382 110.265 237.138 110.477 237.219C110.566 237.264 110.637 237.337 110.68 237.427C110.898 237.805 111.007 238.236 110.995 238.672C110.932 239.068 110.92 239.47 110.959 239.869C111.045 240.257 111.46 240.622 111.82 240.455C111.925 240.391 112.015 240.307 112.085 240.207C112.156 240.106 112.205 239.993 112.231 239.873C113.236 236.962 112.781 233.78 112.321 230.733C112.325 230.663 112.313 230.593 112.287 230.528C112.261 230.463 112.221 230.405 112.17 230.357C112.119 230.309 112.058 230.273 111.991 230.252C111.924 230.23 111.854 230.223 111.784 230.232C109.656 230.02 108.493 229.51 107.276 231.491C106.23 233.161 105.171 235.459 105.171 237.467Z" fill="#2B2B2B"/>
<path d="M130.048 230.06C129.416 232.687 128.781 235.346 128.74 238.045C128.751 239.726 128.878 241.405 129.119 243.069L129.592 246.977C129.755 248.295 129.912 249.609 130.142 250.913C130.289 251.585 130.369 252.27 130.381 252.958C130.337 253.636 130.23 254.308 130.061 254.967C129.778 256.349 129.619 257.754 129.588 259.164C129.538 261.421 129.818 263.678 129.994 265.935C130.345 270.432 130.292 274.952 129.836 279.44C129.654 280.651 129.916 281.887 130.575 282.92C130.842 283.245 131.063 283.607 131.229 283.994C131.567 285.027 130.778 286.061 130.575 287.122C130.445 287.949 130.649 288.794 131.141 289.471C131.633 290.148 132.373 290.602 133.199 290.733C136.806 291.162 140.511 290.967 143.762 292.619C144.105 291.617 143.356 290.48 143.699 289.46C143.915 288.828 144.51 288.417 144.916 287.885C145.461 287.073 145.733 286.108 145.692 285.131C145.707 283.856 145.481 282.589 145.024 281.399C144.641 280.406 144.091 279.426 144.123 278.361C144.123 277.837 144.307 277.287 144.096 276.804C143.95 276.526 143.753 276.279 143.514 276.077C142.167 274.599 141.339 272.721 141.156 270.728C140.98 268.751 141.044 266.759 141.346 264.797C141.566 262.929 141.864 260.956 143.05 259.498C142.5 255.078 142.823 250.592 144.001 246.296C144.118 245.899 144.303 245.438 144.709 245.344C144.87 245.327 145.033 245.35 145.183 245.409C145.334 245.469 145.468 245.564 145.574 245.687C146.282 246.35 146.62 247.311 146.927 248.232C147.265 249.23 147.608 250.295 147.351 251.315C147.242 251.766 147.026 252.164 146.9 252.597C146.626 253.468 146.674 254.408 147.035 255.246C147.211 255.553 147.322 255.892 147.36 256.244C147.318 256.546 147.226 256.839 147.089 257.111C146.922 257.645 146.869 258.208 146.933 258.764C146.998 259.32 147.178 259.856 147.463 260.338C148.038 261.296 148.747 262.167 149.569 262.924C149.176 264.657 149.278 266.465 149.862 268.142C149.904 268.217 149.931 268.301 149.941 268.387C149.951 268.473 149.944 268.56 149.92 268.643C149.839 268.814 149.632 268.878 149.47 269C149.019 269.37 149.298 270.069 149.6 270.552C150.428 271.878 151.342 273.147 152.337 274.353C153.238 275.431 153.157 277.512 154.501 277.9C155.065 278.023 155.649 278.023 156.214 277.9C157.539 277.697 159.018 277.314 159.667 276.14C159.933 275.657 160.042 275.07 160.456 274.709C160.871 274.348 161.408 274.285 161.638 273.852C161.867 273.418 161.61 272.85 161.687 272.349C161.764 271.848 162.201 271.446 162.341 270.918C162.674 269.699 161.254 268.697 161.06 267.451C160.781 265.646 163.053 264.292 162.958 262.486C162.76 258.564 162.634 254.624 162.431 250.701C162.176 247.188 162.14 243.662 162.323 240.144C162.481 237.955 162.774 235.662 161.971 233.626C160.817 230.755 157.634 229.144 154.555 228.837C151.476 228.53 148.406 229.261 145.353 229.74C140.288 230.521 135.141 230.629 130.048 230.06V230.06Z" fill="#3F3D56"/>
<path d="M139.199 186.919C143.188 186.919 146.421 183.682 146.421 179.688C146.421 175.695 143.188 172.457 139.199 172.457C135.21 172.457 131.977 175.695 131.977 179.688C131.977 183.682 135.21 186.919 139.199 186.919Z" fill="#FBBEBE"/>
<path d="M136.259 188.268C136.014 188.84 135.601 189.325 135.076 189.657C134.551 189.99 133.937 190.156 133.315 190.133C133.054 191.216 133.681 192.308 134.397 193.161C135.886 194.895 137.81 196.201 139.97 196.943C142.13 197.684 144.449 197.836 146.687 197.382C147.558 197.225 148.384 196.88 149.108 196.37C150.084 195.555 150.739 194.419 150.957 193.166C151.164 191.921 151.223 190.656 151.132 189.397C151.158 189.148 151.087 188.899 150.934 188.702C150.754 188.562 150.531 188.489 150.303 188.494C148.779 188.359 147.188 188.3 145.849 187.551C144.51 186.802 143.558 185.109 144.203 183.719C144.099 183.935 141.466 184.039 141.119 184.084C140.033 184.238 138.946 184.409 137.864 184.608C137.344 184.637 136.831 184.734 136.336 184.897C135.682 185.235 135.926 185.068 136.079 185.682C136.309 186.621 136.647 187.294 136.259 188.268Z" fill="#FBBEBE"/>
<path d="M141.755 192.665C140.782 192.676 139.812 192.569 138.865 192.345C137.909 192.121 137.067 191.558 136.494 190.76C136.16 190.255 135.944 189.618 135.412 189.334C134.542 188.883 133.55 189.645 132.856 190.345C132.224 191.035 131.491 191.625 130.683 192.096C129.718 192.606 128.591 192.787 127.68 193.387C126.969 193.925 126.358 194.586 125.877 195.337L119.489 204.048C116.923 207.551 114.692 211.311 112.406 215.008C110.427 218.208 109.39 221.891 107.898 225.344C107.779 225.555 107.731 225.798 107.758 226.039C107.812 226.274 108.096 226.463 108.294 226.328C107.623 226.996 108.213 228.133 108.055 229.072C107.876 229.729 107.502 230.316 106.982 230.756C107.975 230.626 108.982 230.673 109.958 230.896C110.966 231.182 111.918 231.64 112.771 232.25C113.317 232.164 113.267 231.193 113.673 230.832C113.916 230.62 114.277 230.647 114.597 230.584C115.801 230.349 116.279 228.901 117.203 228.084C117.974 227.402 119.065 227.181 119.881 226.54C121.206 225.497 121.49 223.642 122.185 222.103C122.775 220.799 123.704 219.661 124.222 218.325C124.56 217.458 124.723 216.52 125.205 215.721C125.976 214.43 127.428 213.744 128.812 213.125C129.686 212.733 130.615 212.326 131.557 212.39C131.508 214.488 131.242 216.556 131.697 218.605C131.855 219.327 132.076 220.031 132.265 220.749C133.126 223.981 133.329 227.348 133.37 230.679C135.441 230.204 137.557 229.95 139.681 229.921C141.354 229.871 143.022 230.088 144.695 230.056C146.678 230.02 148.639 229.636 150.623 229.501C152.607 229.365 154.681 229.501 156.434 230.404C156.292 227.543 156.372 224.676 156.673 221.828L157.151 217.341C157.259 216.038 157.459 214.743 157.751 213.468C158.012 212.439 158.391 211.446 158.679 210.422C159.694 206.811 159.509 202.956 159.315 199.196C159.216 197.264 158.472 195.364 157.597 193.644C157.281 193.006 156.919 192.39 156.515 191.803C155.459 190.345 154.05 189.179 152.421 188.413C150.793 187.648 148.997 187.308 147.201 187.425C146.972 187.432 146.746 187.481 146.534 187.569C146.153 187.813 145.856 188.167 145.682 188.585C144.749 190.263 143.396 191.669 141.755 192.665Z" fill="#3F3D56"/>
<path d="M132.847 182.085C133.049 181.634 133.595 181.467 133.929 181.106C134.569 180.419 134.28 179.323 134.379 178.397C134.542 177.043 135.664 175.91 136.949 175.427C138.259 175.006 139.654 174.918 141.007 175.17C141.658 175.218 142.287 175.427 142.837 175.779C143.071 175.951 143.288 176.172 143.509 176.33C143.911 176.574 144.393 176.65 144.851 176.543C145.31 176.436 145.708 176.154 145.961 175.757C144.365 173.834 142.598 171.803 140.173 171.212C139.34 171.042 138.493 170.961 137.643 170.972C136.521 170.95 135.362 170.932 134.325 171.361C132.914 171.943 131.922 173.283 131.413 174.728C130.967 176.192 130.729 177.711 130.705 179.241C130.613 180.262 130.613 181.29 130.705 182.311C130.879 183.705 131.397 185.034 132.211 186.179C132.321 186.357 132.477 186.502 132.662 186.599C134.717 187.501 132.68 182.46 132.847 182.085Z" fill="#3F3D56"/>
<path d="M145.727 174.642C145.479 172.516 143.964 170.76 142.355 169.347C141.058 168.122 139.512 167.191 137.824 166.617C136.124 166.116 134.168 166.224 132.712 167.239C131.539 168.056 130.796 169.356 130.223 170.665C129.471 172.21 129.098 173.912 129.136 175.63C129.249 177.336 130.079 179.065 131.557 179.927C132.089 179.142 133.014 178.736 133.902 178.415C137.773 176.945 141.72 175.685 145.727 174.642V174.642Z" fill="#FED253"/>
<path opacity="0.1" d="M132.054 173.757C132.198 173.757 132.293 173.906 132.365 174.028C132.732 174.601 133.047 175.205 133.307 175.834C132.78 175.946 131.873 176.073 131.612 175.608C131.472 175.373 131.639 173.735 132.054 173.757Z" fill="black"/>
<path opacity="0.1" d="M142.328 172.737C142.219 172.841 142.093 172.629 142.093 172.475V170.724C142.09 170.675 142.101 170.627 142.125 170.584C142.144 170.563 142.166 170.545 142.192 170.533C142.217 170.52 142.245 170.513 142.274 170.512C142.639 170.471 142.941 170.783 143.175 171.081C143.531 171.563 143.84 172.079 144.099 172.62L142.192 172.561" fill="black"/>
<path d="M166.127 201.737C166.542 201.343 166.985 200.98 167.453 200.65C168.702 199.815 170.212 199.485 171.614 198.953C173.016 198.42 174.441 197.558 174.986 196.159C175.259 195.284 175.348 194.361 175.248 193.45C175.261 193.069 175.193 192.689 175.049 192.336C174.878 192.023 174.633 191.757 174.337 191.559C172.435 190.151 169.883 190.038 167.52 190.182C162.312 190.506 157.207 191.782 152.458 193.947C152.207 194.03 151.987 194.187 151.827 194.398C151.734 194.594 151.693 194.81 151.705 195.026C151.621 196.357 151.794 197.691 152.215 198.957C152.837 200.564 154.117 201.859 154.654 203.498C154.897 204.233 154.978 205.014 155.19 205.755C155.364 206.519 155.816 207.192 156.457 207.641C158.238 208.706 159.919 207.276 161.155 206.165L166.127 201.737Z" fill="#3F3D56"/>
<path d="M142.806 207.989L140.52 202.997C140.185 202.305 139.896 201.592 139.655 200.862C139.393 199.991 139.267 199.088 139.023 198.212C138.221 195.297 136.197 192.868 135.209 190.011C135.147 189.753 135.02 189.515 134.84 189.32C134.696 189.218 134.531 189.149 134.357 189.118C134.183 189.087 134.005 189.094 133.834 189.14C132.455 189.379 131.377 190.431 130.115 191.027C129.529 191.297 128.898 191.478 128.312 191.789C128.019 191.928 127.759 192.129 127.551 192.377C127.342 192.626 127.189 192.916 127.103 193.229C126.964 193.92 127.306 194.583 127.595 195.256C128.821 198.027 129.101 201.124 129.155 204.157C129.195 206.197 129.092 208.386 127.888 210.025C125.575 213.184 127.054 217.824 127.919 221.647C128.023 222.099 128.145 222.586 128.217 223.064C128.293 223.663 128.328 224.266 128.321 224.87C128.321 226.897 128.208 228.986 127.36 230.823C128.197 231.269 129.119 231.531 130.065 231.591C132.683 231.925 135.311 232.159 137.95 232.295C138.777 232.373 139.611 232.33 140.425 232.169C141.393 231.907 142.246 231.33 142.849 230.529C143.452 229.728 143.772 228.748 143.757 227.745C143.901 228.995 144.167 230.354 145.074 231.221C145.98 232.087 147.301 232.218 148.531 232.286C152.005 232.47 155.488 232.372 158.946 231.992C159.166 231.982 159.383 231.932 159.586 231.844C160.253 231.509 160.289 230.589 160.235 229.848C160.136 228.463 160.032 227.077 159.865 225.7C159.724 224.823 159.652 223.935 159.649 223.046C159.718 222.132 159.869 221.226 160.1 220.338C160.704 217.522 161.182 214.647 160.979 211.762C160.899 211.06 160.87 210.352 160.893 209.645C161.01 208.052 161.849 206.536 161.691 204.951C161.24 200.293 160.875 195.513 159.577 191.018C159.342 190.214 159.045 189.352 158.346 188.892C157.444 188.287 156.178 188.603 155.145 188.219C154.661 187.993 154.2 187.72 153.77 187.402C152.836 186.817 151.765 186.487 150.664 186.445C149.834 186.414 148.91 186.599 148.41 187.267C148.178 187.643 148.025 188.062 147.959 188.499C147.305 191.252 146.539 193.974 145.772 196.696L145.037 199.305L143.067 206.31C142.873 207.055 143.004 207.285 142.806 207.989Z" fill="#2B2B2B"/>
<path d="M154.334 180.659L197.943 226.54V230.431H178.499L145.728 187.61" fill="#F1C0C0"/>
<path opacity="0.1" d="M154.334 180.659L197.943 226.54V230.431H178.499L145.728 187.61" fill="black"/>
<path opacity="0.1" d="M146.422 187.005L146.562 187.055L178.778 226.54H197.943V230.431H178.499L145.728 187.61L146.422 187.005Z" fill="black"/>
<path d="M151.439 187.971C149.861 188.661 148.107 189.546 147.634 191.207C147.54 191.499 147.52 191.809 147.575 192.11C147.691 192.464 147.91 192.775 148.206 193.001C148.501 193.228 148.858 193.359 149.23 193.378C149.972 193.396 150.71 193.261 151.398 192.981L160.708 189.903C160.96 189.821 161.249 189.699 161.312 189.451C161.328 189.295 161.297 189.138 161.222 189C160.933 188.296 160.649 186.856 160.045 186.364C159.549 185.967 158.567 186.107 157.967 186.116C155.659 186.134 153.49 187.068 151.439 187.971Z" fill="#2B2B2B"/>
<path d="M159.739 190.268C161.308 190.264 162.867 190.506 164.36 190.986C165.86 191.473 167.189 192.382 168.188 193.604C168.479 193.945 168.686 194.35 168.792 194.786C168.882 195.238 170.352 195.509 170.027 195.815C171.014 195.657 170.78 196.122 171.781 196.113C172.782 196.104 173.864 195.847 174.463 195.048C174.88 194.392 175.066 193.615 174.991 192.841C175.004 192.305 174.903 191.773 174.693 191.279C174.242 190.331 173.206 189.821 172.25 189.383L164.198 185.696C163.731 185.447 163.229 185.269 162.71 185.168C162.273 185.126 161.833 185.137 161.398 185.199L157.751 185.619C158.549 186.136 159.198 186.852 159.635 187.696C160.072 188.541 160.282 189.485 160.244 190.435" fill="#3F3D56"/>
<path opacity="0.1" d="M525.009 210.025C525.018 218.884 523.948 227.712 521.822 236.312C521.106 239.21 520.275 242.047 519.329 244.825C518.17 248.253 516.828 251.616 515.307 254.899C514.541 256.56 513.731 258.188 512.877 259.783C512.891 268.868 511.023 277.858 507.39 286.183C500.824 301.121 489.116 313.199 474.399 320.216C465.197 324.612 455.141 326.923 444.946 326.987H94.8107C79.2326 327.02 63.9234 322.922 50.4398 315.111L50.2324 314.994C48.3118 313.868 46.4394 312.677 44.615 311.419C40.5102 308.58 36.6538 305.397 33.0872 301.904C28.2599 297.181 24.0062 291.904 20.4143 286.183C11.9783 272.772 7.50932 257.243 7.52499 241.394C-1.0183 226.386 -6 208.409 -6 189.09C-6 164.717 1.91662 142.482 14.9232 125.651C17.6348 122.135 20.605 118.826 23.8091 115.753C26.9705 112.711 30.3684 109.927 33.9708 107.425C36.853 105.421 39.8652 103.612 42.9875 102.009C44.2904 101.345 45.5978 100.718 46.9278 100.135C48.0954 99.6163 49.2766 99.1333 50.4713 98.6775C51.905 98.1328 53.3567 97.6318 54.8264 97.1744C56.2961 96.717 57.7463 96.3168 59.1769 95.9738C61.2808 95.4592 63.4208 95.041 65.5968 94.719C67.4001 94.4527 69.2034 94.2676 71.0068 94.1277C72.4404 94.0194 73.8876 93.9607 75.3438 93.9426H76.1327C77.7377 93.9426 79.3337 94.0058 80.9161 94.1142C81.0829 93.7801 81.2632 93.4416 81.43 93.1121C82.0612 91.907 82.7149 90.7064 83.3731 89.5328C83.3716 89.5223 83.3716 89.5117 83.3731 89.5012C83.4858 89.2936 83.5985 89.0905 83.7157 88.8919C84.2477 87.9305 84.8023 86.9781 85.3703 86.0347C85.6318 85.5834 85.8888 85.1591 86.1547 84.7348C86.211 84.6294 86.2727 84.5269 86.3396 84.4279C86.6101 83.9765 86.8851 83.5251 87.1646 83.0738C88.5562 80.8471 90.0034 78.6594 91.5061 76.5109L91.8893 75.9603C92.1238 75.6263 92.3402 75.3013 92.6017 74.9673C93.2238 74.0962 93.864 73.2205 94.5087 72.3629C94.9595 71.7491 95.4103 71.1397 95.8972 70.5574C97.0694 69.0529 98.2716 67.5484 99.5039 66.0438C100.736 64.5393 102.017 63.0543 103.345 61.5888C103.525 61.3857 103.706 61.1871 103.895 60.9885L105.82 58.8852C105.915 58.7859 105.996 58.6956 106.086 58.6053C106.316 58.3571 106.537 58.1088 106.785 57.8696C107.817 56.7728 108.877 55.6985 109.941 54.6288C115.355 49.2293 121.124 44.1975 127.208 39.5668C127.447 39.3772 127.69 39.1967 127.929 39.0161C129.074 38.154 130.237 37.3009 131.4 36.4614C137.798 31.8663 144.486 27.69 151.422 23.9586C151.9 23.6833 152.387 23.426 152.878 23.1732C159.096 19.8797 165.491 16.9323 172.034 14.3445C175.6 12.9318 179.247 11.6048 182.917 10.3906C185.361 9.58716 187.813 8.82436 190.297 8.10669C194.18 6.9873 198.091 5.98377 202.028 5.09609C213.627 2.49029 225.428 0.8806 237.301 0.284542C240.908 0.100987 244.555 0.00620212 248.243 0.000183933C266.037 -0.0234016 283.762 2.22138 300.99 6.68037C301.168 6.94988 301.412 7.16959 301.698 7.31882C301.985 7.46806 302.304 7.54192 302.627 7.53345H304.141C304.8 7.714 305.453 7.89454 306.112 8.08412C309.787 9.14332 313.411 10.3003 316.981 11.5551L317.883 11.8801C326.696 15.0175 335.27 18.7887 343.54 23.1642C350.994 27.099 358.172 31.5387 365.022 36.4524C366.077 37.2107 367.117 37.975 368.142 38.7453C369.386 37.9479 370.651 37.1836 371.938 36.4524C376.905 33.6198 382.182 31.3677 387.663 29.7406C399.122 26.3455 411.247 25.8707 422.936 28.3594C437.926 31.5415 451.496 39.4404 462.456 50.6749C466.918 55.2715 470.891 60.3209 474.308 65.7414C474.556 66.1296 474.804 66.5223 475.043 66.9195C477.981 71.717 480.505 76.7558 482.59 81.9815C482.667 82.1756 482.743 82.3561 482.811 82.5457C484.736 87.439 486.288 92.471 487.455 97.5987C487.509 97.8605 487.572 98.1178 487.626 98.3795C488.717 103.342 489.458 108.375 489.844 113.442C489.844 113.622 489.844 113.807 489.88 113.997C490.069 116.618 490.166 119.266 490.169 121.941C490.169 124.333 490.087 126.707 489.939 129.063C489.939 129.321 489.903 129.587 489.88 129.853C489.84 130.535 489.781 131.207 489.722 131.893C493.165 134.674 496.388 137.718 499.361 140.997C500.675 142.433 501.946 143.922 503.175 145.466C506.919 150.164 510.21 155.207 513.003 160.528C520.627 174.935 525.009 191.884 525.009 210.025Z" fill="#A7A7A7"/>
</g>
<defs>
<clipPath id="clip0">
<rect width="531" height="327" fill="white"/>
</clipPath>
</defs>
</svg>
