<svg width="223" height="231" viewBox="0 0 223 231" fill="none" xmlns="http://www.w3.org/2000/svg">
<path d="M111.47 0.213013C118.794 0.213013 125.819 3.17546 130.998 8.44865C136.177 13.7218 139.086 20.8738 139.086 28.3312C139.086 35.7887 136.177 42.9406 130.998 48.2138C125.819 53.487 118.794 56.4495 111.47 56.4495C104.146 56.4495 97.1214 53.487 91.9423 48.2138C86.7633 42.9406 83.8537 35.7887 83.8537 28.3312C83.8537 20.8738 86.7633 13.7218 91.9423 8.44865C97.1214 3.17546 104.146 0.213013 111.47 0.213013V0.213013ZM154.22 39.5785C177.749 39.5785 199.842 62.0731 199.842 84.5677C229.668 84.5677 229.668 129.557 199.842 129.557H23.0977C-6.72789 129.557 -6.72789 84.5677 23.0977 84.5677C23.0977 62.0731 45.1908 39.5785 68.7199 39.5785C73.5804 59.0364 90.9235 73.3204 111.47 73.3204C132.017 73.3204 149.36 59.0364 154.22 39.5785V39.5785ZM34.1443 152.051H67.2839L78.3304 230.783H56.2374L34.1443 152.051ZM89.377 152.051H133.563L122.517 230.783H100.423L89.377 152.051ZM155.656 152.051H188.796L166.703 230.783H144.61L155.656 152.051Z" fill="#F3F3F3"/>
</svg>
