<svg width="17" height="17" viewBox="0 0 17 17" fill="none" xmlns="http://www.w3.org/2000/svg">
<path d="M8.72852 0.213013C9.25763 0.213013 9.76507 0.427021 10.1392 0.807958C10.5133 1.18889 10.7235 1.70556 10.7235 2.24428C10.7235 2.78301 10.5133 3.29967 10.1392 3.68061C9.76507 4.06154 9.25763 4.27555 8.72852 4.27555C8.19941 4.27555 7.69197 4.06154 7.31783 3.68061C6.94369 3.29967 6.7335 2.78301 6.7335 2.24428C6.7335 1.70556 6.94369 1.18889 7.31783 0.807958C7.69197 0.427021 8.19941 0.213013 8.72852 0.213013V0.213013ZM11.8168 3.05679C13.5165 3.05679 15.1126 4.68181 15.1126 6.30682C17.2672 6.30682 17.2672 9.55685 15.1126 9.55685H2.34448C0.189862 9.55685 0.189862 6.30682 2.34448 6.30682C2.34448 4.68181 3.94049 3.05679 5.64024 3.05679C5.99136 4.46243 7.24423 5.49431 8.72852 5.49431C10.2128 5.49431 11.4657 4.46243 11.8168 3.05679V3.05679ZM3.14248 11.1819H5.5365L6.3345 16.8694H4.73849L3.14248 11.1819ZM7.13251 11.1819H10.3245L9.52652 16.8694H7.93051L7.13251 11.1819ZM11.9205 11.1819H14.3146L12.7185 16.8694H11.1225L11.9205 11.1819Z" fill="#7C5B53"/>
</svg>
