<svg width="79" height="27" viewBox="0 0 79 27" fill="none" xmlns="http://www.w3.org/2000/svg">
<path d="M13 0C13.8598 0 14.6844 0.346907 15.2924 0.964405C15.9003 1.5819 16.2419 2.41941 16.2419 3.29268C16.2419 4.16596 15.9003 5.00346 15.2924 5.62096C14.6844 6.23846 13.8598 6.58537 13 6.58537C12.1402 6.58537 11.3156 6.23846 10.7076 5.62096C10.0997 5.00346 9.75811 4.16596 9.75811 3.29268C9.75811 2.41941 10.0997 1.5819 10.7076 0.964405C11.3156 0.346907 12.1402 0 13 0V0ZM18.0185 4.60976C20.7805 4.60976 23.3741 7.2439 23.3741 9.87805C26.8753 9.87805 26.8753 15.1463 23.3741 15.1463H2.62594C-0.875312 15.1463 -0.875312 9.87805 2.62594 9.87805C2.62594 7.2439 5.21945 4.60976 7.98155 4.60976C8.55212 6.88829 10.588 8.56098 13 8.56098C15.412 8.56098 17.4479 6.88829 18.0185 4.60976V4.60976ZM3.92269 17.7805H7.81297L9.10973 27H6.51621L3.92269 17.7805ZM10.4065 17.7805H15.5935L14.2968 27H11.7032L10.4065 17.7805ZM18.187 17.7805H22.0773L19.4838 27H16.8903L18.187 17.7805Z" fill="white"/>
<path d="M36.7869 21.992C36.1363 21.992 35.5869 21.8533 35.1389 21.576C34.7016 21.3093 34.4829 20.92 34.4829 20.408C34.4829 20.0773 34.5843 19.7787 34.7869 19.512C35.0003 19.2453 35.3043 19.0693 35.6989 18.984C35.6349 19.272 35.5869 19.4907 35.5549 19.64C35.5336 19.7893 35.5229 19.9333 35.5229 20.072C35.5229 20.4987 35.6403 20.8293 35.8749 21.064C36.1096 21.3093 36.4776 21.432 36.9789 21.432C37.5869 21.432 38.0829 21.2667 38.4669 20.936C38.8616 20.616 39.1816 20.1947 39.4269 19.672C39.6723 19.1493 39.8696 18.5947 40.0189 18.008C40.1896 17.3253 40.3229 16.6587 40.4189 16.008C40.5149 15.3467 40.6269 14.8133 40.7549 14.408C40.3389 15.08 39.8589 15.6293 39.3149 16.056C38.7709 16.472 38.1363 16.68 37.4109 16.68C36.6963 16.68 36.1896 16.4827 35.8909 16.088C35.5923 15.6933 35.4429 15.208 35.4429 14.632C35.4429 14.2373 35.4909 13.8107 35.5869 13.352C35.6936 12.8827 35.8163 12.408 35.9549 11.928C36.0936 11.4373 36.2109 10.968 36.3069 10.52C36.4136 10.0613 36.4669 9.656 36.4669 9.304C36.4669 8.984 36.4029 8.712 36.2749 8.488C36.1576 8.264 35.9336 8.152 35.6029 8.152C35.2189 8.152 34.9043 8.296 34.6589 8.584C34.4243 8.86133 34.2483 9.20267 34.1309 9.608C34.0136 10.0133 33.9549 10.3973 33.9549 10.76C33.9549 10.9307 33.9656 11.0747 33.9869 11.192C34.0189 11.3093 34.0723 11.464 34.1469 11.656C33.6243 11.656 33.2563 11.5387 33.0429 11.304C32.8296 11.0587 32.7229 10.7653 32.7229 10.424C32.7229 10.104 32.8029 9.77333 32.9629 9.432C33.1229 9.08 33.3469 8.76 33.6349 8.472C33.9336 8.17333 34.2803 7.93333 34.6749 7.752C35.0696 7.57067 35.4963 7.48 35.9549 7.48C36.5949 7.48 37.0643 7.656 37.3629 8.008C37.6723 8.34933 37.8269 8.76 37.8269 9.24C37.8269 9.47467 37.7896 9.75733 37.7149 10.088C37.6403 10.4187 37.5283 10.856 37.3789 11.4C37.2296 11.944 37.0963 12.4613 36.9789 12.952C36.8616 13.432 36.8029 13.8853 36.8029 14.312C36.8029 14.76 36.8883 15.1227 37.0589 15.4C37.2296 15.6773 37.5229 15.816 37.9389 15.816C38.4189 15.816 38.8669 15.64 39.2829 15.288C39.7096 14.9253 40.0936 14.4507 40.4349 13.864C40.7763 13.2773 41.0589 12.648 41.2829 11.976C41.4216 11.5707 41.5603 11.1173 41.6989 10.616C41.8483 10.104 42.0029 9.608 42.1629 9.128C42.3336 8.648 42.5096 8.25333 42.6909 7.944C42.8829 7.63467 43.0856 7.48 43.2989 7.48C43.4163 7.48 43.5763 7.53333 43.7789 7.64C43.9923 7.74667 44.1949 7.896 44.3869 8.088C44.1523 8.44 43.9496 8.776 43.7789 9.096C43.6189 9.416 43.4643 9.76267 43.3149 10.136C43.1763 10.5093 43.0323 10.952 42.8829 11.464C42.7336 11.9653 42.5683 12.5787 42.3869 13.304C42.2056 14.0187 41.9923 14.888 41.7469 15.912C41.5763 16.5947 41.3736 17.2933 41.1389 18.008C40.9043 18.7227 40.6003 19.3787 40.2269 19.976C39.8536 20.584 39.3896 21.0693 38.8349 21.432C38.2803 21.8053 37.5976 21.992 36.7869 21.992ZM44.4113 19.48C44.0486 19.48 43.75 19.3147 43.5153 18.984C43.2913 18.6427 43.1793 18.2533 43.1793 17.816C43.1793 17.5173 43.2273 17.1653 43.3233 16.76C43.4193 16.3547 43.542 15.96 43.6913 15.576C43.8513 15.192 44.0113 14.872 44.1713 14.616C44.342 14.36 44.4966 14.232 44.6353 14.232C44.71 14.232 44.822 14.2747 44.9713 14.36C45.1313 14.4347 45.27 14.5307 45.3873 14.648C45.27 14.8187 45.126 15.08 44.9553 15.432C44.7953 15.784 44.6513 16.1627 44.5233 16.568C44.3953 16.9733 44.3313 17.3413 44.3313 17.672C44.3313 17.7147 44.3366 17.816 44.3473 17.976C44.3686 18.136 44.4113 18.2853 44.4753 18.424C44.5393 18.5627 44.6513 18.632 44.8113 18.632C44.9926 18.632 45.1846 18.536 45.3873 18.344C45.6006 18.1413 45.814 17.8853 46.0273 17.576C46.2513 17.256 46.4646 16.9147 46.6673 16.552C46.8806 16.1893 47.0673 15.8373 47.2273 15.496C47.398 15.1547 47.5366 14.8667 47.6433 14.632C47.7393 14.6427 47.862 14.6693 48.0113 14.712C48.1713 14.7547 48.31 14.8133 48.4273 14.888C48.5446 14.952 48.6033 15.048 48.6033 15.176C48.6033 15.208 48.55 15.3413 48.4433 15.576C48.3473 15.8 48.23 16.072 48.0913 16.392C47.9633 16.712 47.846 17.0427 47.7393 17.384C47.6433 17.7147 47.5953 18.008 47.5953 18.264C47.5953 18.4133 47.622 18.5467 47.6753 18.664C47.7393 18.7707 47.8566 18.824 48.0273 18.824C48.2513 18.824 48.518 18.7227 48.8273 18.52C49.1366 18.3173 49.4566 18.024 49.7873 17.64C50.118 17.256 50.4113 16.7973 50.6673 16.264L50.9073 16.456C50.6726 17.032 50.3686 17.5493 49.9953 18.008C49.622 18.4667 49.222 18.824 48.7953 19.08C48.3686 19.3467 47.9526 19.48 47.5473 19.48C47.238 19.48 47.0033 19.4053 46.8433 19.256C46.694 19.1173 46.5926 18.936 46.5393 18.712C46.486 18.4773 46.454 18.2427 46.4433 18.008V17.688C46.262 17.976 46.0646 18.2587 45.8513 18.536C45.638 18.8027 45.4086 19.0267 45.1633 19.208C44.9286 19.3893 44.678 19.48 44.4113 19.48ZM58.6258 19.496C58.2098 19.496 57.9005 19.3733 57.6978 19.128C57.4951 18.8827 57.3938 18.5893 57.3938 18.248C57.3938 18.0027 57.4311 17.7573 57.5058 17.512C57.5805 17.2667 57.6551 17.0267 57.7298 16.792C57.8045 16.5467 57.8418 16.328 57.8418 16.136C57.8418 15.9547 57.8045 15.832 57.7298 15.768C57.6658 15.6933 57.5805 15.656 57.4738 15.656C57.2285 15.656 56.9405 15.8427 56.6098 16.216C56.2898 16.5893 55.8898 17.1333 55.4098 17.848C55.2391 18.104 55.0791 18.376 54.9298 18.664C54.7805 18.9413 54.6471 19.176 54.5298 19.368C54.4338 19.368 54.3058 19.352 54.1458 19.32C53.9965 19.288 53.8631 19.24 53.7458 19.176C53.6285 19.1227 53.5698 19.048 53.5698 18.952C53.5698 18.856 53.6231 18.6693 53.7298 18.392C53.8365 18.1147 53.9591 17.7947 54.0978 17.432C54.2365 17.0587 54.3591 16.696 54.4658 16.344C54.5725 15.9813 54.6258 15.6773 54.6258 15.432C54.6258 15.112 54.5138 14.952 54.2898 14.952C54.0658 14.952 53.7938 15.0853 53.4738 15.352C53.1645 15.6187 52.8338 15.9707 52.4818 16.408C52.1405 16.8347 51.8151 17.3147 51.5058 17.848C51.2071 18.3707 50.9618 18.8987 50.7698 19.432C50.6525 19.432 50.5085 19.4053 50.3378 19.352C50.1671 19.3093 50.0178 19.2507 49.8898 19.176C49.7618 19.112 49.6978 19.0533 49.6978 19C49.6978 18.9893 49.7351 18.84 49.8098 18.552C49.8845 18.2533 49.9751 17.8853 50.0818 17.448C50.1885 17.0107 50.3005 16.5627 50.4178 16.104C50.5351 15.6453 50.6365 15.2453 50.7218 14.904C50.7538 14.7867 50.8711 14.6853 51.0738 14.6C51.2765 14.504 51.4525 14.456 51.6018 14.456C51.7511 14.456 51.8791 14.504 51.9858 14.6C52.0925 14.696 52.1458 14.824 52.1458 14.984C52.1458 15.0907 52.1245 15.2453 52.0818 15.448C52.0391 15.6507 51.9858 15.88 51.9218 16.136C52.2205 15.7307 52.5405 15.3413 52.8818 14.968C53.2338 14.5947 53.5911 14.2907 53.9538 14.056C54.3271 13.8107 54.6898 13.688 55.0418 13.688C55.4365 13.688 55.7031 13.832 55.8418 14.12C55.9805 14.3973 56.0498 14.7013 56.0498 15.032C56.0498 15.2453 56.0231 15.448 55.9698 15.64C55.9271 15.8213 55.8631 16.0453 55.7778 16.312C56.0871 15.864 56.4338 15.48 56.8178 15.16C57.2125 14.8293 57.6391 14.664 58.0978 14.664C58.5138 14.664 58.8018 14.792 58.9618 15.048C59.1218 15.2933 59.2018 15.5653 59.2018 15.864C59.2018 16.1413 59.1538 16.4347 59.0578 16.744C58.9725 17.0427 58.8818 17.3307 58.7858 17.608C58.7005 17.8747 58.6578 18.104 58.6578 18.296C58.6578 18.4027 58.6845 18.504 58.7378 18.6C58.7911 18.6853 58.8978 18.728 59.0578 18.728C59.3458 18.728 59.6231 18.5947 59.8898 18.328C60.1565 18.0613 60.4018 17.736 60.6258 17.352C60.8605 16.9573 61.0578 16.584 61.2178 16.232L61.4898 16.568C61.3191 17.0053 61.0951 17.4533 60.8178 17.912C60.5511 18.36 60.2365 18.7333 59.8738 19.032C59.5111 19.3413 59.0951 19.496 58.6258 19.496ZM69.1883 19.496C68.7723 19.496 68.463 19.3733 68.2603 19.128C68.0576 18.8827 67.9563 18.5893 67.9563 18.248C67.9563 18.0027 67.9936 17.7573 68.0683 17.512C68.143 17.2667 68.2176 17.0267 68.2923 16.792C68.367 16.5467 68.4043 16.328 68.4043 16.136C68.4043 15.9547 68.367 15.832 68.2923 15.768C68.2283 15.6933 68.143 15.656 68.0363 15.656C67.791 15.656 67.503 15.8427 67.1723 16.216C66.8523 16.5893 66.4523 17.1333 65.9723 17.848C65.8016 18.104 65.6416 18.376 65.4923 18.664C65.343 18.9413 65.2096 19.176 65.0923 19.368C64.9963 19.368 64.8683 19.352 64.7083 19.32C64.559 19.288 64.4256 19.24 64.3083 19.176C64.191 19.1227 64.1323 19.048 64.1323 18.952C64.1323 18.856 64.1856 18.6693 64.2923 18.392C64.399 18.1147 64.5216 17.7947 64.6603 17.432C64.799 17.0587 64.9216 16.696 65.0283 16.344C65.135 15.9813 65.1883 15.6773 65.1883 15.432C65.1883 15.112 65.0763 14.952 64.8523 14.952C64.6283 14.952 64.3563 15.0853 64.0363 15.352C63.727 15.6187 63.3963 15.9707 63.0443 16.408C62.703 16.8347 62.3776 17.3147 62.0683 17.848C61.7696 18.3707 61.5243 18.8987 61.3323 19.432C61.215 19.432 61.071 19.4053 60.9003 19.352C60.7296 19.3093 60.5803 19.2507 60.4523 19.176C60.3243 19.112 60.2603 19.0533 60.2603 19C60.2603 18.9893 60.2976 18.84 60.3723 18.552C60.447 18.2533 60.5376 17.8853 60.6443 17.448C60.751 17.0107 60.863 16.5627 60.9803 16.104C61.0976 15.6453 61.199 15.2453 61.2843 14.904C61.3163 14.7867 61.4336 14.6853 61.6363 14.6C61.839 14.504 62.015 14.456 62.1643 14.456C62.3136 14.456 62.4416 14.504 62.5483 14.6C62.655 14.696 62.7083 14.824 62.7083 14.984C62.7083 15.0907 62.687 15.2453 62.6443 15.448C62.6016 15.6507 62.5483 15.88 62.4843 16.136C62.783 15.7307 63.103 15.3413 63.4443 14.968C63.7963 14.5947 64.1536 14.2907 64.5163 14.056C64.8896 13.8107 65.2523 13.688 65.6043 13.688C65.999 13.688 66.2656 13.832 66.4043 14.12C66.543 14.3973 66.6123 14.7013 66.6123 15.032C66.6123 15.2453 66.5856 15.448 66.5323 15.64C66.4896 15.8213 66.4256 16.0453 66.3403 16.312C66.6496 15.864 66.9963 15.48 67.3803 15.16C67.775 14.8293 68.2016 14.664 68.6603 14.664C69.0763 14.664 69.3643 14.792 69.5243 15.048C69.6843 15.2933 69.7643 15.5653 69.7643 15.864C69.7643 16.1413 69.7163 16.4347 69.6203 16.744C69.535 17.0427 69.4443 17.3307 69.3483 17.608C69.263 17.8747 69.2203 18.104 69.2203 18.296C69.2203 18.4027 69.247 18.504 69.3003 18.6C69.3536 18.6853 69.4603 18.728 69.6203 18.728C69.9083 18.728 70.1856 18.5947 70.4523 18.328C70.719 18.0613 70.9643 17.736 71.1883 17.352C71.423 16.9573 71.6203 16.584 71.7803 16.232L72.0523 16.568C71.8816 17.0053 71.6576 17.4533 71.3803 17.912C71.1136 18.36 70.799 18.7333 70.4363 19.032C70.0736 19.3413 69.6576 19.496 69.1883 19.496ZM72.1508 23.48C71.8841 23.48 71.6335 23.3947 71.3988 23.224C71.1748 23.064 71.0628 22.8027 71.0628 22.44C71.0628 22.0987 71.1641 21.7893 71.3668 21.512C71.5695 21.2453 71.8308 20.9947 72.1508 20.76C72.4708 20.536 72.8121 20.328 73.1748 20.136C73.5481 19.9547 73.9055 19.784 74.2468 19.624C74.3641 19.3147 74.4921 18.9253 74.6308 18.456C74.7801 17.976 74.9081 17.5333 75.0148 17.128C74.6841 17.5867 74.3321 17.992 73.9588 18.344C73.5855 18.696 73.1695 18.872 72.7108 18.872C72.5188 18.872 72.3161 18.8347 72.1028 18.76C71.8895 18.6747 71.7081 18.536 71.5588 18.344C71.4201 18.1413 71.3508 17.8747 71.3508 17.544C71.3508 17.2667 71.3988 16.9307 71.4948 16.536C71.6015 16.1413 71.7295 15.7573 71.8788 15.384C72.0388 15 72.2041 14.6853 72.3748 14.44C72.5455 14.184 72.6948 14.056 72.8228 14.056C72.8868 14.056 72.9775 14.0827 73.0948 14.136C73.2228 14.1787 73.3455 14.2427 73.4628 14.328C73.5801 14.4027 73.6548 14.488 73.6868 14.584C73.5908 14.712 73.4841 14.8987 73.3668 15.144C73.2495 15.3787 73.1375 15.6453 73.0308 15.944C72.9241 16.232 72.8335 16.5147 72.7588 16.792C72.6948 17.0693 72.6628 17.3093 72.6628 17.512C72.6628 17.672 72.6948 17.8107 72.7588 17.928C72.8228 18.0453 72.9455 18.104 73.1268 18.104C73.3615 18.104 73.6015 18.008 73.8468 17.816C74.1028 17.624 74.3481 17.3787 74.5828 17.08C74.8281 16.7813 75.0468 16.4773 75.2388 16.168C75.2601 16.0933 75.2815 15.976 75.3028 15.816C75.3241 15.656 75.3615 15.4907 75.4148 15.32C75.4681 15.1387 75.5588 14.9733 75.6868 14.824C75.8255 14.6747 76.0175 14.6 76.2628 14.6C76.3481 14.6 76.4281 14.6053 76.5028 14.616C76.5775 14.6267 76.6681 14.6427 76.7748 14.664C76.7748 14.824 76.7161 15.1387 76.5988 15.608C76.4921 16.0667 76.3481 16.6 76.1668 17.208C75.9855 17.816 75.7828 18.424 75.5588 19.032C76.0068 18.8507 76.4708 18.552 76.9508 18.136C77.4415 17.7093 77.8361 17.1067 78.1348 16.328L78.4068 16.552C78.2468 17.0853 78.0015 17.5493 77.6708 17.944C77.3508 18.3387 76.9881 18.6747 76.5828 18.952C76.1775 19.2293 75.7668 19.4587 75.3508 19.64C75.0628 20.3333 74.7481 20.9733 74.4068 21.56C74.0761 22.1467 73.7241 22.6107 73.3508 22.952C72.9775 23.304 72.5775 23.48 72.1508 23.48ZM71.9908 22.888C72.1935 22.888 72.4761 22.6747 72.8388 22.248C73.2015 21.8213 73.5695 21.1813 73.9428 20.328C73.6015 20.4987 73.2548 20.696 72.9028 20.92C72.5615 21.1547 72.2735 21.4 72.0388 21.656C71.8041 21.912 71.6868 22.1733 71.6868 22.44C71.6868 22.5467 71.7081 22.648 71.7508 22.744C71.8041 22.84 71.8841 22.888 71.9908 22.888Z" fill="white"/>
</svg>
