<svg xmlns="http://www.w3.org/2000/svg">
<symbol id="cupcake" width="1em" height="1em" viewBox="0 0 30 30" fill="none">
<path d="M15 1.875C15.8288 1.875 16.6237 2.20424 17.2097 2.79029C17.7958 3.37634 18.125 4.1712 18.125 5C18.125 5.8288 17.7958 6.62366 17.2097 7.20971C16.6237 7.79576 15.8288 8.125 15 8.125C14.1712 8.125 13.3763 7.79576 12.7903 7.20971C12.2042 6.62366 11.875 5.8288 11.875 5C11.875 4.1712 12.2042 3.37634 12.7903 2.79029C13.3763 2.20424 14.1712 1.875 15 1.875ZM19.8375 6.25C22.5 6.25 25 8.75 25 11.25C28.375 11.25 28.375 16.25 25 16.25H5C1.625 16.25 1.625 11.25 5 11.25C5 8.75 7.5 6.25 10.1625 6.25C10.7125 8.4125 12.675 10 15 10C17.325 10 19.2875 8.4125 19.8375 6.25ZM6.25 18.75H10L11.25 27.5H8.75L6.25 18.75ZM12.5 18.75H17.5L16.25 27.5H13.75L12.5 18.75ZM20 18.75H23.75L21.25 27.5H18.75L20 18.75Z" fill="currentColor"/>
</symbol>
<symbol id="heart-message" width="1em" height="1em" viewBox="0 0 30 32" fill="none">
<g clip-path="url(#clip0)">
<path d="M15 27.3913C13.7109 27.3913 12.4023 27.2283 11.0742 26.9022C9.0625 29.3682 7.09961 30.8152 5.18555 31.2432L4.6875 31.3043C5.19531 30.1427 5.48828 28.874 5.56641 27.4983C5.64453 26.1226 5.51758 24.966 5.18555 24.0285C3.56445 22.7446 2.29492 21.2058 1.37695 19.4124C0.458984 17.6189 0 15.7133 0 13.6957C0 11.841 0.395508 10.0679 1.18652 8.37636C1.97754 6.68478 3.04199 5.22758 4.37988 4.00476C5.71777 2.78193 7.31445 1.80876 9.16992 1.08526C11.0254 0.361753 12.9688 0 15 0C17.0312 0 18.9746 0.361753 20.8301 1.08526C22.6855 1.80876 24.2822 2.78193 25.6201 4.00476C26.958 5.22758 28.0225 6.68478 28.8135 8.37636C29.6045 10.0679 30 11.841 30 13.6957C30 15.5503 29.6045 17.3234 28.8135 19.0149C28.0225 20.7065 26.958 22.1637 25.6201 23.3865C24.2822 24.6094 22.6855 25.5825 20.8301 26.306C18.9746 27.0296 17.0312 27.3913 15 27.3913ZM18.75 7.82609C17.7148 7.82609 16.8311 8.20822 16.0986 8.97249C15.3662 9.73675 15 10.659 15 11.7391C15 10.659 14.6338 9.73675 13.9014 8.97249C13.1689 8.20822 12.2852 7.82609 11.25 7.82609C10.2148 7.82609 9.33105 8.20822 8.59863 8.97249C7.86621 9.73675 7.5 10.659 7.5 11.7391V11.7697C7.5 12.8499 7.75391 14.0115 8.26172 15.2548C8.76953 16.498 9.58008 17.7106 10.6934 18.8927L15 21.5217L19.3066 18.8927C20.459 17.6495 21.2793 16.4725 21.7676 15.3618C22.2559 14.251 22.5 13.0537 22.5 11.7697V11.7391C22.5 10.659 22.1338 9.73675 21.4014 8.97249C20.6689 8.20822 19.7852 7.82609 18.75 7.82609Z" fill="currentColor"/>
</g>
<defs>
<clipPath id="clip0">
<rect width="30" height="31.3043" fill="white"/>
</clipPath>
</defs>
</symbol>
<symbol id="blog" width="1em" height="1em" viewBox="0 0 30 30" fill="none">
<path d="M0 25.752H10.002V15.75H0V25.752ZM2.50195 18.252H7.5V23.25H2.50195V18.252ZM12.498 24.5039H30V22.002H12.498V24.5039ZM0 13.2539H10.002V3.25195H0V13.2539ZM2.50195 5.75391H7.5V10.752H2.50195V5.75391ZM12.498 4.5V7.00195H30V4.5H12.498ZM12.498 19.5H30V16.998H12.498V19.5ZM12.498 12H30V9.49805H12.498V12Z" fill="currentColor"/>
</symbol>
<symbol id="location" width="1em" height="1em" viewBox="0 0 30 30" fill="none">
<path d="M15.0029 9.6875C14.0084 9.6875 13.0545 10.0826 12.3513 10.7858C11.648 11.4891 11.2529 12.4429 11.2529 13.4375C11.2529 14.4321 11.648 15.3859 12.3513 16.0892C13.0545 16.7924 14.0084 17.1875 15.0029 17.1875C15.9975 17.1875 16.9513 16.7924 17.6546 16.0892C18.3578 15.3859 18.7529 14.4321 18.7529 13.4375C18.7529 12.4429 18.3578 11.4891 17.6546 10.7858C16.9513 10.0826 15.9975 9.6875 15.0029 9.6875ZM12.8154 13.4375C12.8154 12.8573 13.0459 12.3009 13.4561 11.8907C13.8664 11.4805 14.4228 11.25 15.0029 11.25C15.5831 11.25 16.1395 11.4805 16.5497 11.8907C16.96 12.3009 17.1904 12.8573 17.1904 13.4375C17.1904 14.0177 16.96 14.5741 16.5497 14.9843C16.1395 15.3945 15.5831 15.625 15.0029 15.625C14.4228 15.625 13.8664 15.3945 13.4561 14.9843C13.0459 14.5741 12.8154 14.0177 12.8154 13.4375Z" fill="currentColor"/>
<path d="M23.125 20L16.82 26.6937C16.5863 26.9419 16.3043 27.1397 15.9913 27.2749C15.6783 27.4101 15.3409 27.4798 15 27.4798C14.6591 27.4798 14.3218 27.4101 14.0088 27.2749C13.6958 27.1397 13.4137 26.9419 13.18 26.6937L6.87502 20H6.89877L6.88814 19.9875L6.87502 19.9719C5.2567 18.0579 4.37071 15.6314 4.37502 13.125C4.37502 7.25688 9.13189 2.5 15 2.5C20.8681 2.5 25.625 7.25688 25.625 13.125C25.6293 15.6314 24.7433 18.0579 23.125 19.9719L23.1119 19.9875L23.1013 20H23.125ZM21.9106 18.9881C23.3032 17.3523 24.0663 15.2733 24.0625 13.125C24.0625 8.12 20.005 4.0625 15 4.0625C9.99502 4.0625 5.93752 8.12 5.93752 13.125C5.93752 15.3625 6.74627 17.4075 8.08939 18.9881L8.28189 19.215L14.3175 25.6219C14.4052 25.7149 14.5109 25.7891 14.6283 25.8398C14.7457 25.8905 14.8722 25.9166 15 25.9166C15.1279 25.9166 15.2544 25.8905 15.3717 25.8398C15.4891 25.7891 15.5949 25.7149 15.6825 25.6219L21.7181 19.215L21.9106 18.9881Z" fill="currentColor"/>
</symbol>
<symbol id="facebook" width="1em" height="1em" viewBox="0 0 15 30" fill="none">
<g clip-path="url(#clip0)">
<path d="M3.7271 30V15.9231H0.00488281V10.8548H3.7271V6.52575C3.7271 3.12396 5.92583 0 10.9922 0C13.0435 0 14.5603 0.19665 14.5603 0.19665L14.4408 4.92963C14.4408 4.92963 12.8938 4.91457 11.2058 4.91457C9.37877 4.91457 9.08606 5.75652 9.08606 7.15395V10.8548H14.586L14.3467 15.9231H9.08606V30H3.7271Z" fill="currentColor"/>
</g>
<defs>
<clipPath id="clip0">
<rect width="14.59" height="30" fill="white"/>
</clipPath>
</defs>
</symbol>
<symbol id="twitter" width="1em" height="1em" viewBox="0 0 27 27" fill="none">
<path d="M25.7963 5.87516C24.8949 6.27459 23.9266 6.54448 22.9086 6.66647C23.959 6.03795 24.7448 5.04873 25.1195 3.8834C24.1326 4.46958 23.0525 4.88219 21.9262 5.10328C21.1687 4.29456 20.1655 3.75852 19.0722 3.5784C17.9789 3.39827 16.8567 3.58414 15.8799 4.10714C14.9031 4.63013 14.1262 5.461 13.67 6.47075C13.2137 7.48049 13.1036 8.61262 13.3567 9.69135C11.3571 9.59095 9.40088 9.07121 7.61509 8.16585C5.8293 7.2605 4.25384 5.98977 2.99094 4.43613C2.55912 5.18101 2.31083 6.04465 2.31083 6.96442C2.31035 7.79243 2.51425 8.60775 2.90445 9.33805C3.29464 10.0684 3.85907 10.6911 4.54765 11.1509C3.74908 11.1255 2.96813 10.9097 2.2698 10.5215V10.5863C2.26972 11.7476 2.67143 12.8732 3.40676 13.772C4.1421 14.6709 5.16576 15.2876 6.30407 15.5177C5.56326 15.7181 4.78659 15.7477 4.0327 15.604C4.35386 16.6033 4.97946 17.4771 5.82191 18.1031C6.66435 18.7291 7.68148 19.076 8.73088 19.0953C6.94945 20.4937 4.7494 21.2523 2.48463 21.249C2.08345 21.2491 1.68261 21.2256 1.28418 21.1788C3.58305 22.6569 6.25909 23.4413 8.99213 23.4383C18.2438 23.4383 23.3015 15.7757 23.3015 9.12999C23.3015 8.91408 23.2961 8.69601 23.2864 8.4801C24.2702 7.76865 25.1194 6.88766 25.7942 5.8784L25.7963 5.87516Z" fill="currentColor"/>
</symbol>
<symbol id="instagram" width="1em" height="1em" viewBox="0 0 29 30" fill="none">
<path d="M14.6596 11.4946C12.6167 11.4946 10.9496 13.1618 10.9496 15.2046C10.9496 17.2475 12.6167 18.9146 14.6596 18.9146C16.7025 18.9146 18.3696 17.2475 18.3696 15.2046C18.3696 13.1618 16.7025 11.4946 14.6596 11.4946ZM25.7869 15.2046C25.7869 13.6683 25.8008 12.1459 25.7145 10.6124C25.6282 8.8311 25.2219 7.25024 23.9193 5.9477C22.614 4.64238 21.0359 4.23882 19.2547 4.15254C17.7184 4.06626 16.1959 4.08017 14.6624 4.08017C13.1261 4.08017 11.6037 4.06626 10.0701 4.15254C8.28886 4.23882 6.70801 4.64516 5.40547 5.9477C4.10014 7.25303 3.69658 8.8311 3.6103 10.6124C3.52402 12.1487 3.53794 13.6711 3.53794 15.2046C3.53794 16.7382 3.52402 18.2634 3.6103 19.7969C3.69658 21.5782 4.10293 23.159 5.40547 24.4616C6.71079 25.7669 8.28886 26.1705 10.0701 26.2567C11.6064 26.343 13.1289 26.3291 14.6624 26.3291C16.1987 26.3291 17.7211 26.343 19.2547 26.2567C21.0359 26.1705 22.6168 25.7641 23.9193 24.4616C25.2247 23.1562 25.6282 21.5782 25.7145 19.7969C25.8036 18.2634 25.7869 16.741 25.7869 15.2046ZM14.6596 20.913C11.5007 20.913 8.95127 18.3636 8.95127 15.2046C8.95127 12.0457 11.5007 9.49629 14.6596 9.49629C17.8186 9.49629 20.368 12.0457 20.368 15.2046C20.368 18.3636 17.8186 20.913 14.6596 20.913ZM20.6018 10.5957C19.8642 10.5957 19.2686 10 19.2686 9.2625C19.2686 8.52495 19.8642 7.92934 20.6018 7.92934C21.3393 7.92934 21.9349 8.52495 21.9349 9.2625C21.9351 9.43763 21.9008 9.61109 21.8339 9.77293C21.767 9.93478 21.6688 10.0818 21.5449 10.2057C21.4211 10.3295 21.274 10.4277 21.1122 10.4946C20.9503 10.5615 20.7769 10.5959 20.6018 10.5957Z" fill="currentColor"/>
</symbol>
<symbol id="pinterest" width="1em" height="1em" viewBox="0 0 30 30" fill="none">
<path d="M6.34676 11.8212C6.34676 10.8487 6.51676 9.92995 6.85176 9.07245C7.17183 8.23957 7.64736 7.47516 8.25301 6.81995C8.85743 6.17333 9.54909 5.6142 10.308 5.1587C11.0867 4.68764 11.9296 4.33226 12.8105 4.1037C13.702 3.8696 14.62 3.75154 15.5418 3.75245C16.9655 3.75245 18.2905 4.0537 19.5193 4.6537C20.732 5.24276 21.7642 6.14675 22.508 7.2712C23.2755 8.41495 23.6568 9.7087 23.6568 11.1512C23.6568 12.0162 23.5718 12.8624 23.398 13.6899C23.2274 14.517 22.9562 15.32 22.5905 16.0812C22.2419 16.818 21.7861 17.4992 21.238 18.1024C20.6871 18.6961 20.0199 19.1701 19.278 19.4949C18.4725 19.848 17.6012 20.0256 16.7218 20.0162C16.1105 20.0162 15.5005 19.8724 14.898 19.5837C14.2955 19.2962 13.863 18.9012 13.603 18.3949C13.5118 18.7462 13.3868 19.2537 13.2205 19.9174C13.0605 20.5799 12.953 21.0074 12.9055 21.2012C12.8555 21.3937 12.763 21.7149 12.628 22.1599C12.5365 22.4891 12.419 22.8105 12.2768 23.1212L11.8468 23.9637C11.6608 24.3252 11.4529 24.675 11.2243 25.0112C10.998 25.3387 10.718 25.7299 10.3843 26.1799L10.198 26.2462L10.0743 26.1112C9.94051 24.6949 9.87176 23.8474 9.87176 23.5674C9.87176 22.7387 9.97051 21.8087 10.1655 20.7762C10.3568 19.7449 10.6593 18.4487 11.0655 16.8899C11.4718 15.3324 11.7043 14.4162 11.7668 14.1449C11.4805 13.5612 11.3355 12.7987 11.3355 11.8612C11.3355 11.1124 11.5693 10.4112 12.038 9.7512C12.508 9.0937 13.1018 8.76495 13.8218 8.76495C14.373 8.76495 14.8005 8.94745 15.1068 9.3137C15.4143 9.6787 15.5643 10.1387 15.5643 10.6999C15.5643 11.2949 15.3668 12.1562 14.9693 13.2824C14.5718 14.4099 14.3743 15.2512 14.3743 15.8099C14.3743 16.3762 14.5768 16.8499 14.9818 17.2212C15.3814 17.5926 15.91 17.7939 16.4555 17.7824C16.9505 17.7824 17.4093 17.6699 17.8355 17.4437C18.2551 17.2241 18.6183 16.9105 18.8968 16.5274C19.5033 15.6953 19.9357 14.7494 20.168 13.7462C20.288 13.2187 20.3805 12.7174 20.438 12.2462C20.4993 11.7724 20.5255 11.3249 20.5255 10.8999C20.5255 9.3412 20.0305 8.1262 19.0468 7.2562C18.058 6.3862 16.7705 5.9537 15.1868 5.9537C13.3855 5.9537 11.8793 6.5362 10.673 7.70495C9.46551 8.86995 8.85801 10.3512 8.85801 12.1474C8.85801 12.5437 8.91801 12.9262 9.03176 13.2962C9.14301 13.6649 9.26426 13.9587 9.39551 14.1762C9.52551 14.3899 9.64801 14.5987 9.75926 14.7912C9.87176 14.9837 9.93051 15.1212 9.93051 15.2037C9.93051 15.4562 9.86426 15.7849 9.73051 16.1912C9.59176 16.5974 9.42801 16.7999 9.23051 16.7999C9.21176 16.7999 9.13426 16.7862 8.99926 16.7574C8.53171 16.6179 8.10948 16.3569 7.77551 16.0012C7.42106 15.6325 7.14133 15.1987 6.95176 14.7237C6.76273 14.2504 6.6155 13.7614 6.51176 13.2624C6.39967 12.7903 6.34428 12.3065 6.34676 11.8212Z" fill="currentColor"/>
</symbol>
</svg>