<svg xmlns="http://www.w3.org/2000/svg">
<symbol id="cupcake" width="1em" height="1em" viewBox="0 0 30 30" fill="none">
<path d="M15 1.875C15.8288 1.875 16.6237 2.20424 17.2097 2.79029C17.7958 3.37634 18.125 4.1712 18.125 5C18.125 5.8288 17.7958 6.62366 17.2097 7.20971C16.6237 7.79576 15.8288 8.125 15 8.125C14.1712 8.125 13.3763 7.79576 12.7903 7.20971C12.2042 6.62366 11.875 5.8288 11.875 5C11.875 4.1712 12.2042 3.37634 12.7903 2.79029C13.3763 2.20424 14.1712 1.875 15 1.875ZM19.8375 6.25C22.5 6.25 25 8.75 25 11.25C28.375 11.25 28.375 16.25 25 16.25H5C1.625 16.25 1.625 11.25 5 11.25C5 8.75 7.5 6.25 10.1625 6.25C10.7125 8.4125 12.675 10 15 10C17.325 10 19.2875 8.4125 19.8375 6.25ZM6.25 18.75H10L11.25 27.5H8.75L6.25 18.75ZM12.5 18.75H17.5L16.25 27.5H13.75L12.5 18.75ZM20 18.75H23.75L21.25 27.5H18.75L20 18.75Z" fill="currentColor"/>
</symbol>
<symbol id="heart-message" width="1em" height="1em" viewBox="0 0 30 32" fill="none">
<g clip-path="url(#clip0)">
<path d="M15 27.3913C13.7109 27.3913 12.4023 27.2283 11.0742 26.9022C9.0625 29.3682 7.09961 30.8152 5.18555 31.2432L4.6875 31.3043C5.19531 30.1427 5.48828 28.874 5.56641 27.4983C5.64453 26.1226 5.51758 24.966 5.18555 24.0285C3.56445 22.7446 2.29492 21.2058 1.37695 19.4124C0.458984 17.6189 0 15.7133 0 13.6957C0 11.841 0.395508 10.0679 1.18652 8.37636C1.97754 6.68478 3.04199 5.22758 4.37988 4.00476C5.71777 2.78193 7.31445 1.80876 9.16992 1.08526C11.0254 0.361753 12.9688 0 15 0C17.0312 0 18.9746 0.361753 20.8301 1.08526C22.6855 1.80876 24.2822 2.78193 25.6201 4.00476C26.958 5.22758 28.0225 6.68478 28.8135 8.37636C29.6045 10.0679 30 11.841 30 13.6957C30 15.5503 29.6045 17.3234 28.8135 19.0149C28.0225 20.7065 26.958 22.1637 25.6201 23.3865C24.2822 24.6094 22.6855 25.5825 20.8301 26.306C18.9746 27.0296 17.0312 27.3913 15 27.3913ZM18.75 7.82609C17.7148 7.82609 16.8311 8.20822 16.0986 8.97249C15.3662 9.73675 15 10.659 15 11.7391C15 10.659 14.6338 9.73675 13.9014 8.97249C13.1689 8.20822 12.2852 7.82609 11.25 7.82609C10.2148 7.82609 9.33105 8.20822 8.59863 8.97249C7.86621 9.73675 7.5 10.659 7.5 11.7391V11.7697C7.5 12.8499 7.75391 14.0115 8.26172 15.2548C8.76953 16.498 9.58008 17.7106 10.6934 18.8927L15 21.5217L19.3066 18.8927C20.459 17.6495 21.2793 16.4725 21.7676 15.3618C22.2559 14.251 22.5 13.0537 22.5 11.7697V11.7391C22.5 10.659 22.1338 9.73675 21.4014 8.97249C20.6689 8.20822 19.7852 7.82609 18.75 7.82609Z" fill="currentColor"/>
</g>
<defs>
<clipPath id="clip0">
<rect width="30" height="31.3043" fill="white"/>
</clipPath>
</defs>
</symbol>
<symbol id="blog" width="1em" height="1em" viewBox="0 0 30 30" fill="none">
<path d="M0 25.752H10.002V15.75H0V25.752ZM2.50195 18.252H7.5V23.25H2.50195V18.252ZM12.498 24.5039H30V22.002H12.498V24.5039ZM0 13.2539H10.002V3.25195H0V13.2539ZM2.50195 5.75391H7.5V10.752H2.50195V5.75391ZM12.498 4.5V7.00195H30V4.5H12.498ZM12.498 19.5H30V16.998H12.498V19.5ZM12.498 12H30V9.49805H12.498V12Z" fill="currentColor"/>
</symbol>
<symbol id="location" width="1em" height="1em" viewBox="0 0 30 30" fill="none">
<path d="M15.0029 9.6875C14.0084 9.6875 13.0545 10.0826 12.3513 10.7858C11.648 11.4891 11.2529 12.4429 11.2529 13.4375C11.2529 14.4321 11.648 15.3859 12.3513 16.0892C13.0545 16.7924 14.0084 17.1875 15.0029 17.1875C15.9975 17.1875 16.9513 16.7924 17.6546 16.0892C18.3578 15.3859 18.7529 14.4321 18.7529 13.4375C18.7529 12.4429 18.3578 11.4891 17.6546 10.7858C16.9513 10.0826 15.9975 9.6875 15.0029 9.6875ZM12.8154 13.4375C12.8154 12.8573 13.0459 12.3009 13.4561 11.8907C13.8664 11.4805 14.4228 11.25 15.0029 11.25C15.5831 11.25 16.1395 11.4805 16.5497 11.8907C16.96 12.3009 17.1904 12.8573 17.1904 13.4375C17.1904 14.0177 16.96 14.5741 16.5497 14.9843C16.1395 15.3945 15.5831 15.625 15.0029 15.625C14.4228 15.625 13.8664 15.3945 13.4561 14.9843C13.0459 14.5741 12.8154 14.0177 12.8154 13.4375Z" fill="currentColor"/>
<path d="M23.125 20L16.82 26.6937C16.5863 26.9419 16.3043 27.1397 15.9913 27.2749C15.6783 27.4101 15.3409 27.4798 15 27.4798C14.6591 27.4798 14.3218 27.4101 14.0088 27.2749C13.6958 27.1397 13.4137 26.9419 13.18 26.6937L6.87502 20H6.89877L6.88814 19.9875L6.87502 19.9719C5.2567 18.0579 4.37071 15.6314 4.37502 13.125C4.37502 7.25688 9.13189 2.5 15 2.5C20.8681 2.5 25.625 7.25688 25.625 13.125C25.6293 15.6314 24.7433 18.0579 23.125 19.9719L23.1119 19.9875L23.1013 20H23.125ZM21.9106 18.9881C23.3032 17.3523 24.0663 15.2733 24.0625 13.125C24.0625 8.12 20.005 4.0625 15 4.0625C9.99502 4.0625 5.93752 8.12 5.93752 13.125C5.93752 15.3625 6.74627 17.4075 8.08939 18.9881L8.28189 19.215L14.3175 25.6219C14.4052 25.7149 14.5109 25.7891 14.6283 25.8398C14.7457 25.8905 14.8722 25.9166 15 25.9166C15.1279 25.9166 15.2544 25.8905 15.3717 25.8398C15.4891 25.7891 15.5949 25.7149 15.6825 25.6219L21.7181 19.215L21.9106 18.9881Z" fill="currentColor"/>
</symbol>
</svg>
